<?xml version="1.0" standalone="no"?>
<!DOCTYPE svg PUBLIC "-//W3C//DTD SVG 20010904//EN"
 "http://www.w3.org/TR/2001/REC-SVG-20010904/DTD/svg10.dtd">
<svg version="1.0" xmlns="http://www.w3.org/2000/svg"
 width="1087.000000pt" height="1090.000000pt" viewBox="0 0 1087.000000 1090.000000"
 preserveAspectRatio="xMidYMid meet">
<metadata>
Created by potrace 1.16, written by Peter Selinger 2001-2019
</metadata>
<g transform="translate(0.000000,1090.000000) scale(0.100000,-0.100000)"
fill="#000000" stroke="none">
<path d="M1027 9872 c-565 -565 -1027 -1034 -1027 -1042 0 -8 257 -272 571
-586 l571 -571 -74 -144 c-281 -548 -463 -1165 -535 -1809 -25 -226 -25 -850
0 -1080 51 -459 145 -856 307 -1290 371 -994 1066 -1874 1950 -2469 284 -191
474 -297 808 -450 448 -205 1006 -355 1552 -416 161 -18 893 -21 1048 -5 467
50 903 152 1331 312 l134 50 311 -31 c669 -67 1344 -133 1841 -181 286 -28
610 -59 720 -70 110 -11 228 -22 263 -26 l62 -6 0 29 c0 15 -9 107 -20 203
-10 96 -31 297 -45 445 -33 339 -101 1047 -115 1180 -5 55 -35 357 -65 670
-31 314 -60 606 -64 650 -9 80 -9 80 46 240 128 377 214 764 258 1165 21 191
21 904 0 1085 -77 658 -241 1215 -526 1786 -357 715 -891 1349 -1553 1843
-751 560 -1655 906 -2606 998 -179 17 -771 17 -950 0 -650 -64 -1268 -240
-1831 -522 l-156 -78 -574 574 c-316 316 -581 574 -589 574 -8 0 -477 -462
-1043 -1028z m1578 -32 c291 -291 541 -534 556 -541 25 -10 43 -2 219 96 288
161 468 240 780 344 496 166 990 245 1535 245 341 0 620 -27 950 -90 388 -75
845 -229 1186 -399 1133 -568 2011 -1567 2407 -2740 345 -1023 346 -2114 2
-3146 -332 -995 -1046 -1903 -1955 -2486 -565 -363 -1195 -598 -1870 -697
-457 -68 -985 -68 -1444 0 -779 115 -1512 418 -2133 881 -288 215 -626 536
-849 804 -910 1101 -1278 2542 -1014 3970 91 493 263 978 490 1384 43 77 91
164 108 193 20 37 27 60 23 78 -4 15 -215 232 -536 552 -292 290 -530 534
-530 542 0 16 1519 1540 1535 1540 6 0 248 -238 540 -530z"/>
<path d="M1513 9385 c-299 -300 -543 -547 -543 -548 0 -1 597 -600 1326 -1331
l1325 -1330 545 545 c299 299 544 548 544 554 0 10 -2640 2655 -2650 2655 -3
0 -249 -245 -547 -545z"/>
<path d="M5420 9539 c-443 -27 -886 -127 -1317 -295 -62 -24 -117 -44 -123
-44 -36 0 23 -68 290 -335 l299 -299 43 12 c412 118 706 162 1083 162 463 0
898 -82 1320 -247 108 -43 369 -172 491 -244 85 -49 324 -208 324 -215 0 -2
-21 3 -47 11 -154 45 -389 58 -563 30 -304 -50 -602 -232 -793 -486 -171 -227
-250 -459 -251 -736 -1 -79 -1 -143 -1 -143 0 0 -43 11 -96 24 -208 53 -496
60 -706 17 -647 -133 -1157 -663 -1258 -1306 -42 -269 -21 -530 64 -785 128
-380 447 -738 816 -915 528 -254 1103 -210 1605 123 118 78 328 289 409 412
122 182 208 387 253 594 30 142 32 464 2 607 l-20 95 60 -9 c79 -11 281 -2
371 18 500 107 869 465 992 960 23 97 27 130 27 275 1 148 -4 197 -30 305 l-5
20 16 -20 c9 -11 47 -72 85 -135 244 -414 401 -880 466 -1385 23 -174 26 -631
5 -800 -93 -779 -410 -1476 -924 -2032 -571 -619 -1326 -1006 -2182 -1120
-166 -22 -656 -25 -820 -5 -886 108 -1649 498 -2240 1145 -179 196 -309 374
-450 617 -246 422 -387 858 -457 1405 -19 154 -16 628 6 790 30 222 95 526
141 654 8 24 15 51 15 60 0 14 -596 621 -610 621 -8 0 -95 -221 -151 -387 -92
-268 -167 -615 -201 -923 -20 -182 -17 -750 5 -930 97 -786 377 -1493 831
-2105 364 -488 827 -899 1358 -1204 130 -75 432 -217 583 -276 469 -180 935
-271 1460 -282 596 -13 1156 83 1672 288 560 222 1033 527 1455 937 462 450
787 936 1028 1537 138 346 225 700 277 1135 25 206 24 706 -1 915 -64 540
-172 926 -390 1393 -460 990 -1313 1795 -2326 2195 -627 248 -1235 346 -1890
306z m2220 -1808 c259 -60 493 -240 616 -473 73 -139 105 -272 105 -433 0
-444 -306 -817 -746 -911 -142 -30 -341 -16 -488 35 -302 105 -534 373 -603
696 -30 142 -16 341 35 488 120 345 462 602 826 620 65 3 198 -8 255 -22z"/>
</g>
</svg>
