<?xml version="1.0" standalone="no"?>
<!DOCTYPE svg PUBLIC "-//W3C//DTD SVG 20010904//EN"
 "http://www.w3.org/TR/2001/REC-SVG-20010904/DTD/svg10.dtd">
<svg version="1.0" xmlns="http://www.w3.org/2000/svg"
 width="502.000000pt" height="690.000000pt" viewBox="0 0 502.000000 690.000000"
 preserveAspectRatio="xMidYMid meet">

<g transform="translate(0.000000,690.000000) scale(0.100000,-0.100000)"
fill="#000000" stroke="none">
<path d="M676 6884 c-141 -26 -299 -104 -405 -200 -105 -94 -205 -262 -248
-414 -17 -62 -18 -184 -18 -2830 l0 -2765 28 -85 c105 -312 343 -522 662 -580
43 -8 579 -10 1845 -8 l1785 3 76 22 c239 68 422 220 529 438 94 193 85 -135
85 2985 0 3119 9 2791 -85 2985 -105 216 -290 370 -529 438 l-76 22 -1785 2
c-1509 1 -1797 -1 -1864 -13z m3007 -1027 c166 -49 252 -137 295 -304 16 -64
17 -202 17 -2103 0 -1901 -1 -2039 -17 -2103 -43 -167 -129 -255 -295 -304
-52 -16 -142 -18 -900 -21 l-842 -3 -4 1128 c-3 1274 4 1161 -87 1348 -82 169
-209 298 -378 380 -103 50 -206 75 -340 82 l-113 6 4 766 c3 680 5 773 20 829
50 188 165 284 369 311 35 5 547 8 1138 7 983 -1 1080 -3 1133 -19z"/>
</g>
</svg>
