<?xml version="1.0" standalone="no"?>
<!DOCTYPE svg PUBLIC "-//W3C//DTD SVG 20010904//EN"
 "http://www.w3.org/TR/2001/REC-SVG-20010904/DTD/svg10.dtd">
<svg version="1.0" xmlns="http://www.w3.org/2000/svg"
 width="194.000000pt" height="690.000000pt" viewBox="0 0 194.000000 690.000000"
 preserveAspectRatio="xMidYMid meet">

<g transform="translate(0.000000,690.000000) scale(0.100000,-0.100000)"
fill="#000000" stroke="none">
<path d="M398 6890 c-122 -15 -210 -54 -274 -122 -51 -52 -79 -106 -102 -195
-16 -64 -17 -252 -17 -3123 0 -2871 1 -3059 17 -3123 44 -169 131 -258 301
-305 55 -15 124 -17 647 -17 523 0 592 2 647 17 170 47 257 136 301 305 16 63
17 179 17 1653 0 1473 -1 1590 -17 1653 -47 182 -149 275 -343 312 -54 11
-147 15 -316 15 l-238 0 -4 1278 c-2 1166 -4 1282 -20 1340 -44 163 -135 256
-290 296 -70 18 -226 26 -309 16z"/>
</g>
</svg>
