<?xml version="1.0" standalone="no"?>
<!DOCTYPE svg PUBLIC "-//W3C//DTD SVG 20010904//EN"
 "http://www.w3.org/TR/2001/REC-SVG-20010904/DTD/svg10.dtd">
<svg version="1.0" xmlns="http://www.w3.org/2000/svg"
 width="502.000000pt" height="690.000000pt" viewBox="0 0 502.000000 690.000000"
 preserveAspectRatio="xMidYMid meet">

<g transform="translate(0.000000,690.000000) scale(0.100000,-0.100000)"
fill="#000000" stroke="none">
<path d="M676 6884 c-259 -47 -477 -215 -591 -456 -83 -177 -80 -145 -80 -828
0 -542 2 -612 17 -673 59 -226 201 -320 488 -320 185 0 290 32 378 117 99 94
121 179 132 516 11 333 30 411 124 508 48 51 111 85 199 110 57 16 151 17
1167 17 1016 0 1110 -1 1167 -17 170 -47 257 -136 301 -305 15 -61 17 -129 17
-633 0 -504 -2 -572 -17 -633 -43 -167 -129 -255 -295 -304 -53 -16 -186 -18
-1683 -23 -1783 -6 -1666 -2 -1788 -64 -92 -48 -172 -159 -188 -263 -3 -24
-10 -43 -15 -43 -6 0 -8 -588 -7 -1457 l3 -1458 28 -85 c105 -312 343 -522
662 -580 43 -8 579 -10 1845 -8 l1785 3 76 22 c239 68 422 220 529 438 88 181
85 147 85 835 0 542 -2 612 -17 673 -24 91 -58 154 -110 203 -74 71 -142 98
-293 114 -250 26 -446 -47 -528 -197 -47 -87 -58 -158 -67 -433 -6 -171 -14
-276 -24 -318 -41 -163 -131 -253 -299 -300 -56 -15 -126 -17 -707 -17 -580 0
-651 2 -707 17 -170 47 -257 136 -301 305 -15 61 -17 129 -17 633 0 504 2 572
17 633 43 167 129 255 295 304 53 16 161 18 1223 23 1059 5 1170 7 1223 23
166 49 252 137 295 304 16 63 17 172 17 1503 0 1625 8 1475 -85 1665 -105 216
-290 370 -529 438 l-76 22 -1785 2 c-1509 1 -1797 -1 -1864 -13z"/>
</g>
</svg>
