<?xml version="1.0" standalone="no"?>
<!DOCTYPE svg PUBLIC "-//W3C//DTD SVG 20010904//EN"
 "http://www.w3.org/TR/2001/REC-SVG-20010904/DTD/svg10.dtd">
<svg version="1.0" xmlns="http://www.w3.org/2000/svg"
 width="502.000000pt" height="690.000000pt" viewBox="0 0 502.000000 690.000000"
 preserveAspectRatio="xMidYMid meet">

<g transform="translate(0.000000,690.000000) scale(0.100000,-0.100000)"
fill="#000000" stroke="none">
<path d="M392 6889 c-266 -34 -385 -190 -385 -499 0 -280 90 -422 310 -487 53
-16 187 -18 1683 -23 1497 -5 1630 -7 1683 -23 166 -49 252 -137 295 -304 15
-61 17 -129 17 -633 0 -504 -2 -572 -17 -633 -43 -167 -129 -255 -295 -304
-53 -16 -186 -18 -1683 -23 -1496 -5 -1630 -7 -1683 -23 -123 -36 -210 -103
-257 -195 -30 -60 -60 -203 -60 -287 0 -87 30 -237 60 -296 47 -93 133 -159
257 -196 53 -16 187 -18 1683 -23 1497 -5 1630 -7 1683 -23 166 -49 252 -137
295 -304 15 -61 17 -130 17 -643 0 -527 -2 -580 -18 -639 -45 -159 -126 -241
-284 -288 -54 -16 -184 -18 -1688 -23 -1503 -5 -1634 -7 -1688 -23 -220 -65
-310 -207 -310 -487 0 -282 93 -426 316 -488 58 -16 195 -17 2017 -17 2209 0
2025 -7 2206 80 223 108 382 302 447 545 l22 85 0 2745 c0 3107 9 2781 -85
2975 -105 216 -290 370 -529 438 l-76 22 -1935 1 c-1064 1 -1963 -2 -1998 -7z"/>
</g>
</svg>
