<?xml version="1.0" standalone="no"?>
<!DOCTYPE svg PUBLIC "-//W3C//DTD SVG 20010904//EN"
 "http://www.w3.org/TR/2001/REC-SVG-20010904/DTD/svg10.dtd">
<svg version="1.0" xmlns="http://www.w3.org/2000/svg"
 width="502.000000pt" height="690.000000pt" viewBox="0 0 502.000000 690.000000"
 preserveAspectRatio="xMidYMid meet">

<g transform="translate(0.000000,690.000000) scale(0.100000,-0.100000)"
fill="#000000" stroke="none">
<path d="M385 6889 c-115 -17 -199 -56 -261 -121 -54 -55 -78 -105 -104 -209
-20 -84 -20 -94 -17 -1659 2 -1450 4 -1580 20 -1638 44 -164 130 -250 294
-299 53 -16 187 -18 1683 -23 1497 -5 1630 -7 1683 -23 83 -24 136 -53 185
-101 55 -52 85 -111 111 -216 21 -81 21 -105 21 -1151 0 -608 4 -1070 9 -1073
5 -3 12 -25 15 -48 10 -64 52 -147 99 -196 86 -89 198 -125 387 -125 287 0
429 94 488 320 16 64 17 254 17 3123 0 2869 -1 3059 -17 3123 -59 226 -201
320 -488 320 -284 0 -427 -93 -487 -315 -15 -57 -17 -175 -23 -1148 -6 -973
-8 -1091 -23 -1148 -44 -165 -133 -254 -300 -300 -57 -16 -151 -17 -1167 -17
-1016 0 -1110 1 -1167 17 -167 46 -255 135 -300 300 -15 57 -18 171 -23 1148
-6 1177 -4 1140 -61 1253 -83 166 -303 245 -574 206z"/>
</g>
</svg>
