<?xml version="1.0" standalone="no"?>
<!DOCTYPE svg PUBLIC "-//W3C//DTD SVG 20010904//EN"
 "http://www.w3.org/TR/2001/REC-SVG-20010904/DTD/svg10.dtd">
<svg version="1.0" xmlns="http://www.w3.org/2000/svg"
 width="502.000000pt" height="690.000000pt" viewBox="0 0 502.000000 690.000000"
 preserveAspectRatio="xMidYMid meet">

<g transform="translate(0.000000,690.000000) scale(0.100000,-0.100000)"
fill="#000000" stroke="none">
<path d="M750 6893 c-153 -15 -318 -83 -438 -178 -135 -108 -238 -270 -285
-445 l-22 -85 0 -1420 c0 -1326 1 -1425 18 -1489 24 -96 48 -146 93 -195 50
-56 104 -86 200 -113 l79 -22 1605 -6 1605 -5 80 -23 c94 -26 173 -76 216
-135 39 -53 54 -90 80 -190 19 -77 20 -103 16 -631 -4 -608 -5 -618 -69 -738
-54 -101 -143 -158 -287 -184 -110 -19 -1232 -19 -1343 0 -101 18 -176 54
-232 109 -98 98 -115 168 -126 502 -6 215 -11 274 -29 339 -45 171 -125 247
-307 293 -62 16 -126 18 -639 18 -559 0 -571 -1 -649 -23 -173 -48 -247 -126
-293 -308 -16 -62 -18 -128 -18 -679 l0 -610 34 -97 c99 -286 309 -481 596
-553 l99 -25 1796 3 1795 3 76 21 c238 68 424 222 529 438 92 189 84 37 88
1625 3 1519 4 1473 -49 1616 -26 70 -105 156 -172 189 -125 61 -49 58 -1807
65 -1479 5 -1610 7 -1663 23 -83 24 -133 52 -182 102 -51 51 -77 97 -102 186
-16 59 -18 113 -18 649 0 536 2 590 18 649 10 36 27 82 38 104 30 57 102 125
165 154 117 53 89 52 1729 53 890 0 1557 4 1611 10 227 24 343 104 396 273 20
62 23 94 23 227 0 133 -3 165 -23 227 -53 169 -169 249 -396 273 -84 9 -3752
12 -3836 3z"/>
</g>
</svg>
