<?xml version="1.0" standalone="no"?>
<!DOCTYPE svg PUBLIC "-//W3C//DTD SVG 20010904//EN"
 "http://www.w3.org/TR/2001/REC-SVG-20010904/DTD/svg10.dtd">
<svg version="1.0" xmlns="http://www.w3.org/2000/svg"
 width="502.000000pt" height="690.000000pt" viewBox="0 0 502.000000 690.000000"
 preserveAspectRatio="xMidYMid meet">

<g transform="translate(0.000000,690.000000) scale(0.100000,-0.100000)"
fill="#000000" stroke="none">
<path d="M684 6885 c-92 -16 -132 -30 -221 -73 -163 -79 -292 -209 -373 -377
-94 -193 -84 137 -88 -2950 -2 -1953 0 -2748 8 -2795 58 -336 321 -607 655
-675 72 -14 258 -15 1870 -13 l1790 4 76 21 c238 68 424 222 529 438 92 189
84 39 87 1612 4 1521 3 1529 -52 1652 -47 102 -132 170 -262 208 -53 16 -187
18 -1683 23 -1496 5 -1630 7 -1683 23 -166 49 -252 137 -295 304 -15 61 -17
129 -17 633 0 504 2 572 17 633 44 169 131 258 301 305 57 16 151 17 1167 17
1016 0 1110 -1 1167 -17 168 -47 258 -137 299 -300 10 -42 18 -147 24 -318 11
-337 33 -422 132 -516 88 -85 193 -117 378 -117 287 0 429 94 488 320 15 61
17 131 17 673 0 686 3 652 -84 835 -104 215 -290 370 -529 438 l-77 22 -1785
2 c-1431 1 -1799 -1 -1856 -12z m2999 -3968 c82 -24 136 -53 185 -101 56 -52
86 -111 112 -219 21 -83 21 -103 17 -639 -3 -476 -6 -562 -20 -616 -44 -165
-133 -254 -300 -300 -56 -15 -126 -17 -707 -17 -581 0 -651 2 -707 17 -170 47
-257 136 -301 305 -15 61 -17 129 -17 633 0 504 2 572 17 633 50 191 163 289
370 317 35 4 340 7 678 6 544 -2 622 -4 673 -19z"/>
</g>
</svg>
