<svg id="svg" version="1.1" xmlns="http://www.w3.org/2000/svg" xmlns:xlink="http://www.w3.org/1999/xlink" width="400" height="549.800796812749" viewBox="0, 0, 400,549.800796812749"><g id="svgg"><path id="path0" d="M26.722 1.319 C 8.483 5.228,0.000 17.709,0.000 40.637 C 0.000 58.479,5.824 71.159,16.457 76.470 C 25.647 81.059,17.067 80.765,156.972 81.295 C 276.104 81.746,286.098 81.887,291.589 83.187 C 306.156 86.638,313.658 94.172,316.940 108.649 C 318.105 113.787,318.277 134.216,318.699 317.928 C 319.210 540.175,318.847 523.967,323.530 533.344 C 328.841 543.977,341.521 549.801,359.363 549.801 C 382.576 549.801,394.859 541.297,398.732 522.544 C 400.576 513.612,400.654 60.988,398.813 52.296 C 393.392 26.711,373.587 6.657,348.660 1.512 C 338.664 -0.551,36.294 -0.732,26.722 1.319 " stroke="none" fill="#000000" fill-rule="evenodd"></path></g></svg>