<svg id="svg" version="1.1" xmlns="http://www.w3.org/2000/svg" xmlns:xlink="http://www.w3.org/1999/xlink" width="400" height="549.800796812749" viewBox="0, 0, 400,549.800796812749"><g id="svgg"><path id="path0" d="M50.961 1.549 C 26.353 6.742,6.564 26.918,1.187 52.296 C -0.617 60.813,-0.580 488.893,1.226 497.636 C 6.443 522.894,26.883 543.404,51.958 548.542 C 61.295 550.455,338.705 550.455,348.042 548.542 C 373.085 543.410,393.564 522.862,398.774 497.636 C 400.580 488.893,400.617 60.813,398.813 52.296 C 393.392 26.711,373.587 6.657,348.660 1.512 C 337.662 -0.758,61.729 -0.724,50.961 1.549 M291.589 83.200 C 306.306 86.654,313.775 94.263,316.958 109.043 C 318.917 118.144,318.917 197.394,316.958 206.495 C 313.703 221.608,306.124 229.109,290.761 232.421 C 280.461 234.641,119.539 234.641,109.239 232.421 C 93.876 229.109,86.297 221.608,83.042 206.495 C 81.083 197.394,81.083 118.144,83.042 109.043 C 86.879 91.228,96.654 83.744,118.327 82.031 C 135.167 80.700,285.252 81.713,291.589 83.200 M291.589 317.503 C 307.105 321.040,314.020 328.636,317.261 345.702 C 319.362 356.761,319.062 431.009,316.876 441.151 C 313.710 455.843,305.977 463.404,290.761 466.684 C 280.603 468.874,192.704 468.874,182.545 466.684 C 167.183 463.372,159.604 455.871,156.349 440.757 C 154.389 431.657,154.389 352.407,156.349 343.306 C 160.184 325.496,169.915 318.042,191.633 316.278 C 206.658 315.058,285.082 316.019,291.589 317.503 " stroke="none" fill="#000000" fill-rule="evenodd"></path></g></svg>