<svg id="svg" version="1.1" xmlns="http://www.w3.org/2000/svg" xmlns:xlink="http://www.w3.org/1999/xlink" width="400" height="549.800796812749" viewBox="0, 0, 400,549.800796812749"><g id="svgg"><path id="path0" d="M50.961 1.549 C 26.353 6.742,6.564 26.918,1.187 52.296 C -0.634 60.893,-0.565 279.387,1.262 288.281 C 4.128 302.234,10.811 309.678,24.172 313.801 C 27.836 314.931,42.395 315.124,156.972 315.558 C 306.640 316.125,298.005 315.535,308.367 325.896 C 318.665 336.195,318.725 336.829,318.725 434.893 C 318.725 523.773,318.711 523.476,323.273 532.793 C 328.730 543.939,341.169 549.801,359.363 549.801 C 382.576 549.801,394.859 541.297,398.732 522.544 C 400.576 513.612,400.654 60.988,398.813 52.296 C 393.392 26.711,373.587 6.657,348.660 1.512 C 337.662 -0.758,61.729 -0.724,50.961 1.549 M291.589 83.200 C 306.306 86.654,313.775 94.263,316.958 109.043 C 318.917 118.144,318.917 197.394,316.958 206.495 C 313.703 221.608,306.124 229.109,290.761 232.421 C 280.461 234.641,119.539 234.641,109.239 232.421 C 93.876 229.109,86.297 221.608,83.042 206.495 C 81.083 197.394,81.083 118.144,83.042 109.043 C 86.879 91.228,96.654 83.744,118.327 82.031 C 135.167 80.700,285.252 81.713,291.589 83.200 " stroke="none" fill="#000000" fill-rule="evenodd"></path></g></svg>