<?xml version="1.0" standalone="no"?>
<!DOCTYPE svg PUBLIC "-//W3C//DTD SVG 20010904//EN"
 "http://www.w3.org/TR/2001/REC-SVG-20010904/DTD/svg10.dtd">
<svg version="1.0" xmlns="http://www.w3.org/2000/svg"
 width="502.000000pt" height="690.000000pt" viewBox="0 0 502.000000 690.000000"
 preserveAspectRatio="xMidYMid meet">

<g transform="translate(0.000000,690.000000) scale(0.100000,-0.100000)"
fill="#000000" stroke="none">
<path d="M676 6884 c-141 -26 -299 -104 -405 -200 -105 -94 -205 -262 -248
-414 -17 -62 -18 -184 -18 -2830 l0 -2765 28 -85 c105 -313 341 -520 662 -580
42 -8 187 -10 465 -8 338 4 415 7 463 21 163 47 250 136 294 299 15 57 17 175
23 1148 6 973 8 1091 23 1148 44 165 133 254 300 300 56 15 127 17 707 17 580
0 651 -2 707 -17 170 -47 258 -137 300 -305 16 -62 17 -162 18 -1148 0 -996 1
-1085 17 -1143 47 -167 136 -256 301 -299 85 -22 299 -22 384 0 168 44 257
135 301 304 16 64 17 247 17 2973 0 3288 9 2941 -85 3135 -105 216 -290 370
-529 438 l-76 22 -1785 2 c-1509 1 -1797 -1 -1864 -13z m3007 -1027 c166 -49
252 -137 295 -304 15 -61 17 -129 17 -633 0 -504 -2 -572 -17 -633 -44 -169
-131 -258 -301 -305 -57 -16 -151 -17 -1167 -17 -1016 0 -1110 1 -1167 17
-170 47 -257 136 -301 305 -15 61 -17 129 -17 633 0 504 2 572 17 633 50 191
164 289 370 316 35 5 547 8 1138 7 983 -1 1080 -3 1133 -19z"/>
</g>
</svg>
