<?xml version="1.0" standalone="no"?>
<!DOCTYPE svg PUBLIC "-//W3C//DTD SVG 20010904//EN"
 "http://www.w3.org/TR/2001/REC-SVG-20010904/DTD/svg10.dtd">
<svg version="1.0" xmlns="http://www.w3.org/2000/svg"
 width="502.000000pt" height="690.000000pt" viewBox="0 0 502.000000 690.000000"
 preserveAspectRatio="xMidYMid meet">

<g transform="translate(0.000000,690.000000) scale(0.100000,-0.100000)"
fill="#000000" stroke="none">
<path d="M364 6886 c-195 -32 -308 -132 -349 -311 -13 -56 -15 -433 -12 -3132
2 -2866 4 -3072 20 -3131 46 -170 149 -268 315 -303 74 -15 3527 -6 3657 10
128 15 238 38 330 68 351 114 572 374 649 763 35 181 40 302 40 1135 1 968 9
892 -124 1161 -44 89 -84 183 -89 210 -6 30 -12 515 -15 1239 -4 1277 -5 1312
-57 1523 -96 388 -349 635 -749 728 -197 46 -212 46 -1920 50 -1294 2 -1631 0
-1696 -10z m3065 -1030 c185 -43 279 -139 319 -324 24 -115 24 -1109 0 -1224
-41 -189 -136 -283 -329 -325 -78 -17 -155 -18 -1049 -18 -884 0 -970 1 -1027
17 -170 47 -257 136 -301 305 -15 61 -17 129 -17 633 0 504 2 572 17 633 50
191 163 289 370 317 35 4 486 7 1003 6 853 -3 947 -4 1014 -20z m230 -2941
c195 -44 282 -139 323 -354 19 -100 20 -134 15 -616 -5 -553 -9 -601 -62 -704
-53 -106 -141 -167 -286 -198 -76 -16 -143 -18 -704 -18 -557 0 -626 2 -682
17 -170 47 -257 136 -301 305 -15 61 -17 129 -17 633 0 504 2 572 17 633 50
191 163 288 370 317 35 5 331 7 658 5 518 -2 605 -5 669 -20z"/>
</g>
</svg>
