<?xml version="1.0" standalone="no"?>
<!DOCTYPE svg PUBLIC "-//W3C//DTD SVG 20010904//EN"
 "http://www.w3.org/TR/2001/REC-SVG-20010904/DTD/svg10.dtd">
<svg version="1.0" xmlns="http://www.w3.org/2000/svg"
 width="503.000000pt" height="690.000000pt" viewBox="0 0 503.000000 690.000000"
 preserveAspectRatio="xMidYMid meet">

<g transform="translate(0.000000,690.000000) scale(0.100000,-0.100000)"
fill="#000000" stroke="none">
<path d="M374 6886 c-196 -32 -304 -128 -352 -313 -16 -64 -17 -255 -17 -3128
0 -2873 1 -3064 17 -3128 45 -172 148 -273 316 -308 74 -15 3537 -6 3667 10
128 15 238 38 330 68 351 114 572 374 649 763 35 181 40 302 40 1135 1 967 9
892 -124 1160 -84 172 -100 218 -100 305 0 87 16 133 100 305 53 106 87 190
102 250 l23 90 -1 835 c-1 897 -5 983 -55 1188 -96 388 -349 635 -749 728
-199 46 -202 46 -2035 50 -1387 2 -1746 0 -1811 -10z m3295 -1030 c185 -44
279 -139 319 -324 24 -115 24 -1109 0 -1224 -41 -189 -136 -283 -329 -325 -78
-17 -159 -18 -1164 -18 -993 0 -1085 1 -1142 17 -170 47 -257 136 -301 305
-15 61 -17 129 -17 633 0 504 2 572 17 633 50 191 163 289 370 317 35 4 538 7
1118 6 965 -2 1061 -4 1129 -20z m0 -2941 c195 -44 282 -139 323 -354 19 -100
20 -134 15 -616 -5 -553 -9 -601 -62 -704 -53 -106 -141 -167 -286 -198 -76
-16 -143 -18 -704 -18 -557 0 -626 2 -682 17 -170 47 -257 136 -301 305 -15
61 -17 129 -17 633 0 504 2 572 17 633 50 191 163 288 370 317 35 5 331 7 658
5 518 -2 605 -5 669 -20z"/>
</g>
</svg>
