<?xml version="1.0" standalone="no"?>
<!DOCTYPE svg PUBLIC "-//W3C//DTD SVG 20010904//EN"
 "http://www.w3.org/TR/2001/REC-SVG-20010904/DTD/svg10.dtd">
<svg version="1.0" xmlns="http://www.w3.org/2000/svg"
 width="561.000000pt" height="690.000000pt" viewBox="0 0 561.000000 690.000000"
 preserveAspectRatio="xMidYMid meet">

<g transform="translate(0.000000,690.000000) scale(0.100000,-0.100000)"
fill="#000000" stroke="none">
<path d="M1188 6890 c-208 -26 -326 -124 -374 -312 -13 -48 -18 -130 -21 -350
l-5 -288 -252 0 c-203 0 -263 -3 -306 -16 -150 -45 -239 -175 -228 -333 9
-118 77 -219 183 -272 49 -23 56 -24 328 -27 l277 -3 0 -225 0 -224 -253 0
c-203 0 -264 -3 -307 -16 -150 -45 -239 -175 -228 -333 9 -118 77 -219 183
-272 49 -23 57 -24 327 -27 l278 -3 2 -1757 3 -1757 28 -85 c105 -312 343
-522 662 -580 42 -8 552 -10 1745 -8 l1685 3 76 22 c239 68 422 220 529 438
92 187 85 85 85 1315 0 1229 7 1127 -85 1315 -105 216 -291 370 -529 438 l-76
22 -1552 3 -1553 2 0 315 0 315 1753 0 c1919 0 1807 -3 1898 57 108 71 163
226 126 354 -33 113 -109 191 -217 223 -48 14 -227 16 -1807 16 l-1753 0 0
225 0 225 1753 0 c1919 0 1807 -3 1898 57 108 71 163 226 126 354 -33 113
-109 191 -217 223 -48 14 -227 16 -1806 16 l-1752 0 -5 288 c-3 219 -8 302
-21 350 -41 161 -134 256 -289 296 -70 18 -226 26 -309 16z m3222 -4235 c228
-49 379 -201 427 -430 25 -118 25 -772 0 -890 -49 -233 -200 -383 -437 -432
-126 -26 -794 -26 -920 0 -237 49 -388 199 -437 432 -25 118 -25 772 0 890 49
232 205 387 432 429 44 8 89 17 100 20 11 3 187 3 390 1 291 -3 386 -7 445
-20z"/>
</g>
</svg>
