<?xml version="1.0" standalone="no"?>
<!DOCTYPE svg PUBLIC "-//W3C//DTD SVG 20010904//EN"
 "http://www.w3.org/TR/2001/REC-SVG-20010904/DTD/svg10.dtd">
<svg version="1.0" xmlns="http://www.w3.org/2000/svg"
 width="502.000000pt" height="690.000000pt" viewBox="0 0 502.000000 690.000000"
 preserveAspectRatio="xMidYMid meet">

<g transform="translate(0.000000,690.000000) scale(0.100000,-0.100000)"
fill="#000000" stroke="none">
<path d="M676 6884 c-141 -26 -299 -104 -405 -200 -105 -94 -205 -262 -248
-414 -17 -62 -18 -184 -18 -2830 l0 -2765 28 -85 c105 -312 343 -521 662 -580
43 -8 618 -10 2005 -8 1812 3 1949 4 2003 21 220 66 310 207 310 487 0 280
-90 422 -310 487 -53 16 -164 18 -1410 21 l-1352 3 -4 1127 c-3 1273 4 1160
-87 1347 -82 169 -209 298 -378 380 -103 50 -206 75 -340 82 l-113 6 4 766 c3
680 5 773 20 829 44 163 130 250 294 299 53 16 187 18 1683 23 1497 5 1630 7
1683 23 220 65 310 207 310 487 0 280 -90 421 -310 487 -54 17 -189 18 -2003
20 -1649 1 -1957 -1 -2024 -13z"/>
</g>
</svg>
