<?xml version="1.0" standalone="no"?>
<!DOCTYPE svg PUBLIC "-//W3C//DTD SVG 20010904//EN"
 "http://www.w3.org/TR/2001/REC-SVG-20010904/DTD/svg10.dtd">
<svg version="1.0" xmlns="http://www.w3.org/2000/svg"
 width="503.000000pt" height="690.000000pt" viewBox="0 0 503.000000 690.000000"
 preserveAspectRatio="xMidYMid meet">

<g transform="translate(0.000000,690.000000) scale(0.100000,-0.100000)"
fill="#000000" stroke="none">
<path d="M374 6885 c-195 -30 -304 -127 -352 -312 -16 -64 -17 -255 -17 -3128
0 -2873 1 -3064 17 -3128 44 -167 134 -260 295 -302 50 -13 269 -15 1653 -15
934 0 1663 4 1760 10 441 27 712 121 924 320 210 199 313 441 358 845 10 96
13 552 13 2275 0 2272 0 2255 -45 2491 -84 440 -329 730 -730 863 -145 48
-320 75 -561 86 -320 15 -3215 11 -3315 -5z m3036 -1029 c344 -69 512 -239
577 -587 17 -88 18 -206 18 -1819 0 -1613 -1 -1731 -18 -1819 -66 -352 -236
-522 -588 -588 -82 -16 -156 -18 -579 -18 -429 0 -492 2 -547 17 -167 46 -256
135 -300 300 -15 56 -17 167 -23 998 -7 1055 -1 971 -90 1155 -82 169 -209
298 -378 380 -103 50 -206 75 -340 82 l-113 6 4 766 c3 680 5 773 20 829 50
188 165 284 369 312 35 4 477 7 983 6 817 -3 930 -5 1005 -20z"/>
</g>
</svg>
