<?xml version="1.0" standalone="no"?>
<!DOCTYPE svg PUBLIC "-//W3C//DTD SVG 20010904//EN"
 "http://www.w3.org/TR/2001/REC-SVG-20010904/DTD/svg10.dtd">
<svg version="1.0" xmlns="http://www.w3.org/2000/svg"
 width="503.000000pt" height="690.000000pt" viewBox="0 0 503.000000 690.000000"
 preserveAspectRatio="xMidYMid meet">

<g transform="translate(0.000000,690.000000) scale(0.100000,-0.100000)"
fill="#000000" stroke="none">
<path d="M374 6886 c-195 -31 -304 -128 -352 -313 -16 -64 -17 -255 -17 -3128
0 -2873 1 -3064 17 -3128 44 -171 148 -273 313 -307 34 -7 735 -10 2185 -8
1994 3 2139 4 2193 21 220 66 310 207 310 487 0 280 -91 422 -310 487 -53 16
-166 18 -1223 23 -1056 5 -1170 7 -1223 23 -166 49 -252 137 -295 304 -15 61
-17 129 -17 633 0 504 2 572 17 633 43 167 129 256 295 304 52 15 154 17 923
23 941 7 912 5 1028 64 57 30 122 96 152 155 30 59 60 209 60 296 0 84 -30
227 -60 287 -47 92 -134 159 -257 195 -53 16 -174 18 -1383 23 -1209 5 -1330
7 -1383 23 -166 49 -252 137 -295 304 -15 61 -17 128 -17 628 0 503 2 567 18
629 24 96 48 146 93 195 50 56 104 86 200 113 l79 22 1615 6 c1486 5 1620 7
1673 23 219 65 310 207 310 487 0 280 -90 421 -310 487 -54 17 -196 18 -2158
20 -1654 1 -2117 -1 -2181 -11z"/>
</g>
</svg>
