<?xml version="1.0" standalone="no"?>
<!DOCTYPE svg PUBLIC "-//W3C//DTD SVG 20010904//EN"
 "http://www.w3.org/TR/2001/REC-SVG-20010904/DTD/svg10.dtd">
<svg version="1.0" xmlns="http://www.w3.org/2000/svg"
 width="502.000000pt" height="690.000000pt" viewBox="0 0 502.000000 690.000000"
 preserveAspectRatio="xMidYMid meet">

<g transform="translate(0.000000,690.000000) scale(0.100000,-0.100000)"
fill="#000000" stroke="none">
<path d="M684 6885 c-92 -16 -132 -30 -221 -73 -163 -79 -292 -209 -373 -377
-91 -187 -84 -75 -88 -1335 -3 -1129 4 -1461 33 -1590 64 -291 218 -455 491
-525 148 -37 174 -38 1649 -45 1322 -5 1455 -7 1508 -23 84 -25 147 -60 193
-109 54 -55 78 -105 104 -211 21 -83 21 -103 17 -639 -3 -476 -6 -562 -20
-616 -44 -165 -133 -254 -300 -300 -56 -15 -126 -17 -707 -17 -580 0 -651 2
-707 17 -158 44 -254 135 -292 273 -6 22 -20 106 -31 188 -33 238 -67 317
-168 394 -109 83 -234 96 -879 91 -475 -4 -502 -5 -577 -26 -95 -26 -150 -57
-199 -111 -47 -52 -64 -86 -89 -179 -20 -71 -22 -108 -26 -495 -2 -289 0 -440
8 -485 59 -339 321 -609 655 -677 72 -14 258 -15 1870 -13 l1790 4 76 21 c238
68 424 222 529 438 92 189 85 62 85 1495 0 1341 0 1356 -47 1510 -64 211 -208
360 -416 430 -161 53 -142 53 -1707 60 -1321 5 -1455 7 -1508 23 -166 49 -252
137 -295 304 -15 61 -17 129 -17 633 0 504 2 572 17 633 44 169 131 258 301
305 57 16 151 17 1167 17 1016 0 1110 -1 1167 -17 158 -44 254 -134 292 -274
6 -22 20 -106 30 -187 30 -224 54 -288 133 -363 88 -85 193 -117 378 -117 287
0 429 94 488 320 15 60 17 123 17 518 0 512 1 501 -84 680 -104 215 -290 370
-529 438 l-77 22 -1785 2 c-1431 1 -1799 -1 -1856 -12z"/>
</g>
</svg>
