<?xml version="1.0" standalone="no"?>
<!DOCTYPE svg PUBLIC "-//W3C//DTD SVG 20010904//EN"
 "http://www.w3.org/TR/2001/REC-SVG-20010904/DTD/svg10.dtd">
<svg version="1.0" xmlns="http://www.w3.org/2000/svg"
 width="785.000000pt" height="839.000000pt" viewBox="0 0 785.000000 839.000000"
 preserveAspectRatio="xMidYMid meet">

<g transform="translate(0.000000,839.000000) scale(0.100000,-0.100000)"
fill="#000000" stroke="none">
<path d="M5844 8366 c-40 -18 -94 -87 -94 -120 0 -14 -4 -26 -10 -26 -5 0 -10
-11 -10 -25 0 -14 -4 -33 -9 -43 -11 -20 -51 -156 -58 -194 -3 -16 -9 -28 -13
-28 -4 0 -10 -15 -13 -32 -3 -18 -13 -58 -22 -88 -9 -30 -19 -67 -22 -82 -3
-16 -9 -28 -14 -28 -5 0 -9 -10 -9 -22 0 -13 -11 -54 -25 -93 -13 -38 -25 -80
-25 -92 0 -13 -3 -23 -8 -23 -7 0 -28 -71 -39 -132 -3 -16 -9 -28 -14 -28 -5
0 -9 -10 -9 -21 0 -19 -19 -85 -41 -144 -4 -11 -15 -47 -24 -80 -9 -33 -24
-76 -34 -95 l-17 -35 -1437 2 c-791 1 -1444 6 -1452 10 -12 7 -12 13 0 38 7
17 20 46 28 65 9 19 29 66 46 103 17 38 31 70 31 72 0 2 14 34 31 72 16 37 34
77 39 88 5 11 23 51 39 88 17 38 31 70 31 72 0 3 34 80 86 193 13 29 24 58 24
65 0 7 4 17 8 22 5 6 19 35 32 65 12 30 33 78 46 106 13 28 25 62 28 76 8 47
-14 49 -345 21 -290 -24 -307 -26 -364 -54 -87 -43 -96 -49 -159 -109 -61 -58
-80 -94 -281 -525 -21 -44 -60 -127 -87 -185 -112 -234 -205 -432 -246 -520
-33 -72 -106 -226 -187 -395 -29 -60 -72 -150 -95 -200 -40 -86 -86 -183 -170
-360 -21 -44 -57 -120 -80 -170 -23 -49 -66 -139 -95 -200 -29 -60 -67 -141
-85 -180 -18 -38 -54 -115 -80 -170 -54 -112 -121 -255 -170 -360 -18 -38 -56
-119 -85 -180 -29 -60 -65 -137 -80 -170 -15 -33 -54 -114 -85 -180 -32 -66
-76 -160 -100 -210 -23 -49 -55 -117 -71 -150 -15 -33 -32 -78 -37 -100 -9
-44 -8 -162 2 -172 3 -4 6 -17 6 -30 0 -33 40 -90 75 -107 17 -8 1162 -406
2545 -884 l2515 -870 85 4 c110 5 120 7 120 17 0 4 5 5 10 2 6 -3 10 -2 10 4
0 6 6 8 14 5 8 -3 23 3 34 14 11 11 23 18 26 14 3 -3 6 0 6 6 0 7 7 9 22 3 22
-8 27 -5 87 51 16 15 32 24 35 21 3 -4 6 1 6 10 0 9 6 17 13 17 7 0 19 16 27
35 8 19 17 35 22 35 4 0 8 9 8 21 0 12 8 23 19 26 17 4 21 17 27 74 3 38 10
66 15 64 4 -3 10 21 14 52 4 32 13 72 21 90 8 17 14 46 14 65 1 18 7 44 15 58
8 14 15 43 15 65 0 22 7 51 15 65 8 14 15 41 15 60 0 19 7 46 15 60 8 14 14
41 15 60 0 19 7 48 15 64 8 15 15 45 15 65 0 20 7 49 15 65 8 15 15 41 15 57
0 17 7 46 15 66 8 19 15 50 15 67 0 17 7 44 15 60 8 15 15 45 15 65 1 20 7 47
15 61 8 14 14 44 15 67 0 23 5 43 11 45 6 2 13 31 16 65 3 35 9 60 13 58 8 -5
20 53 20 98 0 16 4 26 9 23 5 -3 12 23 16 59 3 36 10 63 14 60 5 -2 11 21 14
52 3 31 11 61 16 66 6 6 11 28 11 48 0 20 7 50 15 65 8 16 15 48 15 72 0 23 4
42 9 42 5 0 13 25 16 55 4 30 11 55 15 55 4 0 10 25 13 56 3 31 11 62 16 67 6
6 11 29 11 52 0 23 5 46 10 51 6 6 13 34 17 62 3 29 10 52 14 52 5 0 9 15 9
34 0 18 7 50 15 69 8 20 15 52 15 72 0 19 4 35 9 35 4 0 11 23 14 52 4 28 11
56 17 62 5 5 10 29 10 52 0 24 4 45 9 49 5 3 13 30 16 60 4 30 11 55 16 55 5
0 9 17 9 39 0 21 7 55 15 74 8 20 15 48 15 62 0 14 5 25 10 25 6 0 10 22 10
49 0 28 4 52 9 55 5 4 12 29 16 56 4 27 11 52 16 56 5 3 9 25 9 49 0 24 4 46
9 49 5 4 12 29 16 56 4 27 11 52 16 56 5 3 9 25 9 50 0 24 4 44 9 44 5 0 11
17 14 38 8 57 27 135 37 154 6 10 10 36 10 58 0 22 5 40 10 40 6 0 10 10 10
23 0 27 29 156 41 179 5 10 9 31 9 48 0 16 5 30 10 30 6 0 10 18 10 40 0 22 4
48 9 58 5 9 16 53 26 97 9 44 21 88 26 97 5 10 9 34 9 53 0 19 5 35 10 35 6 0
10 23 10 50 0 28 5 50 10 50 6 0 10 14 10 30 0 17 4 38 9 48 5 9 21 71 36 137
15 66 31 130 36 143 5 13 9 36 9 52 0 17 5 30 10 30 6 0 10 20 10 45 0 25 5
45 10 45 6 0 10 18 10 40 0 22 5 40 11 40 6 0 9 17 8 43 -2 24 1 49 5 56 5 8
3 17 -5 22 -8 5 -11 9 -8 9 8 0 -55 70 -62 70 -10 0 -129 120 -129 130 0 5 -6
10 -13 10 -8 0 -38 23 -68 51 -30 28 -70 63 -89 77 -19 15 -48 40 -65 57 -27
27 -111 87 -117 84 -2 -1 -26 20 -55 47 -62 59 -122 114 -192 174 -29 25 -74
66 -101 92 -74 71 -92 79 -190 84 -41 3 -76 -1 -96 -10z m-2119 -2296 c1490
-96 1878 -124 1907 -137 58 -25 82 -57 85 -111 2 -47 -2 -66 -31 -157 -9 -27
-16 -62 -16 -77 0 -16 -4 -28 -10 -28 -5 0 -10 -8 -10 -19 0 -18 -16 -79 -46
-171 -8 -25 -14 -55 -14 -67 0 -13 -4 -23 -9 -23 -5 0 -11 -22 -15 -50 -4 -27
-11 -52 -16 -55 -6 -3 -10 -21 -10 -38 -1 -18 -7 -43 -15 -57 -8 -14 -14 -39
-15 -57 0 -17 -4 -35 -10 -38 -5 -3 -12 -28 -16 -56 -4 -27 -10 -52 -15 -54
-4 -3 -11 -26 -15 -50 -3 -25 -10 -45 -15 -45 -5 0 -9 -15 -9 -32 0 -18 -7
-46 -15 -62 -8 -15 -15 -38 -15 -50 0 -11 -6 -41 -14 -66 -8 -25 -21 -71 -30
-102 -9 -32 -23 -84 -32 -115 -9 -32 -22 -78 -30 -103 -8 -25 -14 -55 -14 -67
0 -12 -4 -24 -9 -28 -6 -3 -13 -26 -17 -52 -4 -25 -13 -58 -20 -72 -8 -14 -14
-38 -14 -52 0 -15 -7 -40 -15 -55 -8 -16 -15 -37 -15 -48 0 -10 -7 -39 -14
-65 -8 -25 -22 -73 -31 -106 -9 -33 -21 -73 -27 -90 -5 -16 -14 -49 -19 -73
-5 -23 -13 -51 -19 -61 -5 -11 -10 -30 -10 -43 0 -13 -6 -35 -14 -50 -8 -14
-17 -49 -21 -77 -4 -28 -11 -51 -15 -51 -4 0 -11 -27 -15 -60 -4 -33 -11 -58
-15 -55 -4 3 -11 -18 -15 -46 -4 -28 -13 -63 -21 -77 -8 -15 -14 -37 -14 -50
0 -13 -6 -35 -14 -50 -7 -15 -17 -48 -20 -74 -4 -27 -11 -48 -16 -48 -4 0 -11
-27 -15 -60 -4 -33 -11 -60 -15 -60 -5 0 -11 -18 -15 -40 -4 -22 -11 -40 -16
-40 -5 0 -9 -9 -9 -20 0 -11 -4 -20 -9 -20 -5 0 -12 -8 -15 -18 -6 -17 -66
-88 -66 -77 0 3 -17 -2 -37 -11 -21 -9 -54 -17 -73 -17 -19 -1 -37 -5 -40 -8
-9 -10 -3961 1202 -3982 1221 -15 13 -20 32 -21 72 -1 62 9 99 51 188 16 36
42 92 57 125 15 33 38 85 52 115 14 30 34 74 44 98 31 68 55 122 94 207 20 44
44 96 52 115 46 104 85 189 152 334 23 49 44 99 47 112 3 13 10 24 14 24 4 0
11 11 14 24 3 13 22 58 41 99 19 41 35 80 35 86 0 6 4 11 9 11 5 0 12 11 15
24 3 13 22 59 42 102 36 79 48 106 99 219 15 33 40 87 55 120 39 84 82 179
115 255 16 36 35 72 42 81 7 8 13 20 13 26 0 17 85 82 127 96 21 7 54 12 73
10 19 -2 877 -57 1905 -123z"/>
<path d="M1789 5549 c-19 -10 -41 -21 -49 -24 -13 -5 -57 -69 -69 -100 -11
-30 -44 -103 -55 -125 -24 -46 -4 -133 33 -145 25 -7 2972 -456 3007 -458 31
-1 98 25 109 43 3 5 13 6 21 3 10 -4 17 2 21 16 3 11 9 18 14 15 5 -3 9 2 9
10 0 9 9 30 20 48 11 18 20 43 20 56 0 13 5 33 12 45 12 23 26 80 33 132 6 42
-25 112 -55 127 -14 7 -27 16 -30 19 -3 3 -673 83 -1490 178 -817 94 -1492
173 -1501 175 -8 2 -31 -5 -50 -15z"/>
<path d="M4550 8264 c-198 -18 -237 -34 -276 -114 -32 -67 -36 -76 -69 -170
-15 -41 -33 -89 -41 -107 -8 -17 -14 -36 -14 -42 0 -6 -4 -19 -9 -29 -5 -9
-17 -37 -26 -62 -10 -25 -21 -54 -25 -65 -4 -11 -16 -42 -25 -70 -9 -27 -23
-63 -30 -80 -13 -31 -25 -78 -30 -123 -3 -31 17 -93 30 -95 6 0 16 -7 23 -14
7 -7 25 -15 40 -18 15 -3 43 -10 63 -15 20 -6 50 -10 68 -10 46 0 181 49 217
79 78 65 124 113 124 128 0 6 6 16 14 22 8 7 17 30 21 52 4 21 11 41 16 45 5
3 9 13 9 23 0 10 7 32 15 47 8 16 15 37 15 46 0 9 5 20 10 23 6 3 10 14 10 23
0 14 32 108 60 177 21 53 40 112 40 128 0 9 5 17 10 17 6 0 10 8 10 18 1 19
31 110 44 130 4 7 3 19 -4 27 -7 8 -9 15 -4 15 5 0 0 7 -10 15 -24 18 -65 18
-276 -1z"/>
<path d="M7342 6674 c-6 -22 -25 -102 -42 -179 -17 -77 -47 -203 -65 -280 -19
-77 -43 -183 -55 -235 -11 -52 -25 -111 -30 -130 -15 -56 -69 -283 -79 -331
-17 -85 -172 -735 -184 -769 -6 -19 -15 -39 -19 -44 -4 -6 -8 -29 -8 -52 0
-24 -4 -45 -9 -48 -5 -4 -12 -29 -16 -56 -4 -27 -11 -52 -16 -56 -5 -3 -9 -27
-9 -55 0 -27 -4 -49 -10 -49 -5 0 -10 -11 -10 -25 0 -14 -7 -42 -15 -62 -8
-19 -15 -53 -15 -74 0 -22 -4 -39 -9 -39 -5 0 -12 -25 -16 -55 -3 -30 -11 -57
-16 -60 -5 -4 -9 -25 -9 -49 0 -23 -5 -47 -10 -52 -6 -6 -13 -34 -17 -62 -3
-29 -10 -52 -14 -52 -5 0 -9 -16 -9 -35 0 -20 -7 -52 -15 -72 -8 -19 -15 -51
-15 -69 0 -19 -4 -34 -9 -34 -4 0 -11 -23 -14 -52 -4 -28 -11 -56 -17 -62 -5
-5 -10 -28 -10 -51 0 -23 -5 -46 -11 -52 -5 -5 -13 -36 -16 -67 -3 -31 -9 -56
-13 -56 -4 0 -11 -25 -15 -55 -3 -30 -11 -55 -16 -55 -5 0 -9 -19 -9 -42 0
-24 -7 -56 -15 -72 -8 -15 -15 -45 -15 -65 0 -20 -5 -42 -11 -48 -5 -5 -13
-35 -16 -66 -3 -31 -9 -54 -14 -52 -4 3 -11 -24 -14 -60 -4 -36 -11 -62 -16
-59 -5 3 -9 -7 -9 -23 0 -45 -12 -103 -20 -98 -4 2 -10 -23 -13 -58 -3 -34
-10 -63 -16 -65 -6 -2 -11 -22 -11 -45 -1 -23 -7 -53 -15 -67 -8 -14 -14 -41
-15 -61 0 -20 -7 -50 -15 -65 -8 -16 -15 -43 -15 -60 0 -17 -7 -48 -15 -67 -8
-20 -15 -49 -15 -66 0 -16 -7 -42 -15 -57 -8 -16 -15 -45 -15 -65 0 -20 -7
-50 -15 -65 -8 -16 -15 -45 -15 -64 -1 -19 -7 -46 -15 -60 -8 -14 -15 -41 -15
-60 0 -19 -7 -46 -15 -60 -8 -14 -15 -43 -15 -65 0 -22 -7 -51 -15 -65 -8 -14
-14 -40 -15 -58 0 -19 -6 -48 -14 -65 -8 -18 -17 -58 -21 -90 -4 -31 -10 -55
-14 -52 -5 2 -12 -26 -15 -64 -6 -57 -10 -70 -27 -74 -11 -3 -19 -14 -19 -26
0 -12 -4 -21 -8 -21 -5 0 -14 -16 -22 -35 -8 -19 -20 -35 -27 -35 -7 0 -13 -7
-13 -17 0 -9 -3 -14 -6 -10 -3 3 -19 -6 -35 -21 -54 -51 -64 -57 -94 -57 -16
0 -38 -8 -48 -18 -10 -10 -25 -16 -33 -13 -8 3 -14 1 -14 -5 0 -6 -4 -7 -10
-4 -5 3 -10 2 -10 -2 0 -10 -10 -12 -120 -17 l-85 -4 -1990 688 c-1094 379
-2179 752 -2410 830 -231 78 -471 159 -533 180 l-113 39 43 -78 c193 -348 385
-680 393 -677 5 1 17 -5 27 -13 9 -9 1157 -411 2550 -893 l2533 -876 85 4
c110 5 120 7 120 17 0 4 5 5 10 2 6 -3 10 -2 10 4 0 6 6 8 14 5 8 -3 23 3 34
14 11 11 23 18 26 14 3 -3 6 0 6 6 0 7 7 9 22 3 22 -8 27 -5 87 51 16 15 32
24 35 21 3 -4 6 1 6 10 0 9 6 17 13 17 7 0 19 16 27 35 8 19 17 35 22 35 4 0
8 8 8 18 1 18 29 62 31 46 3 -19 17 52 18 89 0 21 5 36 10 32 5 -3 12 21 16
52 4 32 13 72 21 90 8 17 14 46 14 65 1 18 7 44 15 58 8 14 15 43 15 65 0 22
7 51 15 65 8 14 15 41 15 60 0 19 7 46 15 60 8 14 14 41 15 60 0 19 7 48 15
64 8 15 15 45 15 65 0 20 7 49 15 65 8 15 15 41 15 57 0 17 7 46 15 66 8 19
15 50 15 67 0 17 7 44 15 60 8 15 15 45 15 65 1 20 7 47 15 61 8 14 14 44 15
67 0 23 5 43 11 45 6 2 13 31 16 65 3 35 9 60 13 58 8 -5 20 53 20 98 0 16 4
26 9 23 5 -3 12 23 16 59 3 36 10 63 14 60 5 -2 11 21 14 52 3 31 11 61 16 66
6 6 11 28 11 48 0 20 7 50 15 65 8 16 15 48 15 72 0 23 4 42 9 42 5 0 13 25
16 55 4 30 11 55 15 55 4 0 10 25 13 56 3 31 11 62 16 67 6 6 11 29 11 52 0
23 5 46 10 51 6 6 13 34 17 62 3 29 10 52 14 52 5 0 9 15 9 34 0 18 7 50 15
69 8 20 15 52 15 72 0 19 4 35 9 35 4 0 11 23 14 52 4 28 11 56 17 62 5 5 10
29 10 52 0 24 4 45 9 49 5 3 13 30 16 60 4 30 11 55 16 55 5 0 9 17 9 39 0 21
7 55 15 74 8 20 15 48 15 62 0 14 5 25 10 25 6 0 10 22 10 49 0 28 4 52 9 55
5 4 12 29 16 56 4 27 11 52 16 56 5 3 9 25 9 49 0 24 4 46 9 49 5 4 12 29 16
56 4 27 11 52 16 56 5 3 9 25 9 50 0 24 4 44 9 44 5 0 11 17 14 38 8 57 27
135 37 154 6 10 10 36 10 58 0 22 5 40 10 40 6 0 10 10 10 23 0 27 29 156 41
179 5 10 9 31 9 48 0 16 5 30 10 30 6 0 10 18 10 40 0 22 4 48 9 58 5 9 16 53
26 97 9 44 21 88 26 97 5 10 9 34 9 53 0 19 5 35 10 35 6 0 10 23 10 50 0 28
5 50 10 50 6 0 10 14 10 30 0 17 4 38 9 48 5 9 21 71 36 137 15 66 31 130 36
143 5 13 9 36 9 52 0 17 5 30 10 30 6 0 10 20 10 45 0 25 5 45 10 45 6 0 10
18 10 40 0 22 5 40 11 40 6 0 9 18 8 45 -2 24 0 47 4 51 4 4 2 13 -4 21 -6 7
-8 13 -3 13 5 0 4 4 -3 8 -6 4 -111 183 -234 397 -122 215 -226 394 -230 399
-4 5 -12 -9 -17 -30z"/>
</g>
</svg>
