<?xml version="1.0" standalone="no"?>
<!DOCTYPE svg PUBLIC "-//W3C//DTD SVG 20010904//EN"
 "http://www.w3.org/TR/2001/REC-SVG-20010904/DTD/svg10.dtd">
<svg version="1.0" xmlns="http://www.w3.org/2000/svg"
 width="810.000000pt" height="968.000000pt" viewBox="0 0 810.000000 968.000000"
 preserveAspectRatio="xMidYMid meet">

<g transform="translate(0.000000,968.000000) scale(0.100000,-0.100000)"
fill="#000000" stroke="none">
<path d="M4330 9624 c-899 -78 -1737 -461 -2350 -1074 -785 -785 -1103 -1827
-849 -2780 93 -349 292 -717 537 -993 29 -33 41 -55 37 -66 -16 -43 -292 -461
-304 -461 -8 0 -35 13 -60 29 -65 41 -136 63 -207 63 -67 1 -105 -15 -145 -59
-31 -33 -887 -1339 -919 -1402 -30 -60 -36 -157 -16 -256 29 -145 103 -272
329 -569 109 -144 224 -287 255 -319 121 -125 257 -196 348 -182 51 7 113 46
141 88 12 18 200 329 419 692 218 363 432 719 476 791 93 154 110 216 90 326
-15 84 -78 207 -147 291 -34 41 -55 75 -52 86 5 19 263 440 282 460 12 12 28
6 112 -45 362 -216 761 -353 1225 -421 156 -22 674 -25 838 -5 813 103 1534
428 2120 957 698 629 1098 1545 1040 2381 -32 457 -162 851 -400 1213 -270
411 -613 709 -1075 936 -306 151 -597 240 -960 297 -103 16 -191 20 -425 23
-162 1 -315 1 -340 -1z m170 -464 c939 -73 1669 -591 1940 -1377 223 -647 80
-1395 -386 -2013 -332 -440 -811 -787 -1341 -970 -568 -197 -1130 -222 -1663
-76 -500 137 -947 449 -1211 846 -603 903 -342 2136 619 2928 221 182 546 371
817 475 386 149 834 217 1225 187z"/>
<path d="M3992 8379 l-36 -81 -56 5 c-255 26 -309 30 -324 24 -9 -4 -31 -38
-48 -76 -17 -39 -36 -72 -44 -75 -7 -3 -122 9 -254 25 -133 17 -251 28 -264
25 -18 -4 -43 -51 -136 -257 -88 -194 -110 -253 -100 -259 7 -4 19 -6 25 -3
10 3 552 -87 678 -113 35 -7 35 -24 -4 -113 -28 -62 -35 -71 -58 -71 -14 1
-138 23 -276 49 -288 56 -280 57 -321 -35 -43 -98 -43 -98 121 -132 460 -97
820 -174 823 -176 1 -2 -14 -45 -33 -96 -20 -51 -32 -97 -28 -101 4 -4 52 -17
106 -29 53 -13 99 -25 101 -29 2 -3 -12 -46 -31 -95 -18 -50 -32 -95 -29 -101
2 -7 154 -49 338 -95 183 -45 337 -86 342 -91 10 -9 -131 -414 -151 -434 -10
-10 -22 -11 -46 -4 -17 5 -66 19 -107 30 -41 12 -78 23 -82 25 -4 3 10 51 30
109 24 69 33 108 27 114 -6 5 -143 46 -305 90 -312 84 -344 94 -354 110 -3 5
28 96 70 201 42 105 74 193 72 196 -2 2 -92 24 -199 48 -152 36 -197 43 -206
33 -7 -7 -37 -72 -67 -145 -31 -73 -65 -145 -76 -159 -23 -29 -26 -56 -7 -71
6 -5 49 -20 95 -33 60 -16 82 -27 82 -38 0 -9 -16 -54 -35 -100 -19 -45 -33
-87 -30 -92 3 -4 21 -11 40 -15 20 -3 46 -15 60 -26 32 -25 517 -167 570 -167
38 0 199 -42 213 -56 4 -3 -10 -54 -31 -112 -20 -59 -34 -110 -30 -114 5 -4
54 -22 111 -39 57 -18 106 -38 109 -46 3 -8 -12 -63 -32 -123 -21 -60 -35
-116 -33 -123 6 -14 236 -93 245 -84 3 3 23 60 45 126 36 112 41 120 64 120
29 0 224 -58 238 -70 8 -8 -44 -179 -71 -234 -19 -36 -22 -35 140 -88 98 -33
131 -40 145 -32 23 14 92 210 89 254 l-2 35 -65 7 c-69 7 -212 50 -217 65 -6
17 57 187 76 207 22 23 91 224 91 262 0 28 -12 35 -127 65 -131 34 -127 15
-50 242 37 108 67 207 67 221 0 19 -8 27 -36 36 -20 7 -48 10 -63 7 -31 -7
-137 15 -153 31 -11 11 21 94 40 106 18 11 54 117 62 183 4 34 16 79 26 100
18 37 21 38 64 35 25 -2 64 -12 88 -24 58 -28 114 -34 130 -15 14 17 352 998
352 1021 0 23 -27 33 -110 40 -124 11 -126 14 -90 108 22 60 25 84 9 93 -15
10 -999 105 -1082 105 l-48 0 -37 -81z m623 -174 c236 -25 228 -23 222 -54 -2
-14 -15 -54 -28 -88 -12 -35 -20 -66 -16 -69 4 -4 50 -13 104 -20 53 -8 101
-18 106 -23 11 -11 -105 -356 -126 -378 -10 -10 -81 -2 -337 38 -179 28 -331
57 -338 63 -10 10 -7 28 20 96 l32 83 81 -8 c144 -14 137 -16 162 35 34 72 48
119 36 131 -5 5 -49 15 -97 21 -54 7 -90 17 -93 25 -7 17 44 145 64 160 8 7
27 10 42 8 14 -3 89 -12 166 -20z m-843 -471 c90 -14 167 -30 172 -34 11 -11
-52 -170 -70 -177 -16 -6 -376 57 -388 68 -8 7 36 128 57 157 13 17 44 15 229
-14z m255 -455 c114 -22 211 -44 216 -48 4 -4 -8 -51 -28 -104 -41 -114 -46
-106 88 -133 49 -9 91 -23 94 -30 4 -12 -36 -134 -57 -175 -6 -10 -21 -19 -34
-19 -25 0 -418 89 -425 96 -3 3 6 32 18 67 43 115 46 128 32 136 -6 4 -54 16
-106 26 -53 11 -95 24 -95 30 0 22 75 195 84 195 2 0 98 -18 213 -41z"/>
<path d="M2656 7128 c-10 -5 -29 -36 -43 -67 -39 -86 -42 -97 -34 -110 11 -17
220 -68 304 -74 78 -6 77 -7 122 102 17 41 23 67 17 73 -8 8 -117 36 -327 82
-11 3 -28 0 -39 -6z"/>
<path d="M2783 6483 c-6 -2 -51 -96 -99 -209 -76 -176 -86 -207 -73 -218 8 -8
101 -42 206 -77 170 -56 194 -62 208 -49 19 19 93 201 101 249 3 20 17 66 31
104 15 37 24 70 20 73 -3 3 -57 21 -119 39 -62 18 -135 44 -163 58 -53 27 -93
38 -112 30z"/>
<path d="M2323 6392 c-17 -11 -96 -191 -90 -206 6 -16 108 -55 163 -63 l43 -6
30 67 c48 105 57 135 46 152 -6 9 -44 27 -85 40 -83 26 -89 27 -107 16z"/>
<path d="M3737 5913 c-29 -57 -71 -189 -65 -205 8 -19 221 -93 243 -84 8 3 15
13 15 23 0 10 16 60 35 112 19 51 35 97 35 102 0 8 -212 79 -236 79 -8 0 -20
-12 -27 -27z"/>
<path d="M7890 6445 c-1 -161 -48 -462 -105 -670 -72 -263 -205 -580 -335
-800 -26 -44 -78 -132 -116 -195 -81 -136 -155 -245 -238 -353 -34 -43 -79
-102 -101 -130 -64 -85 -362 -376 -480 -470 -389 -310 -784 -527 -1234 -677
-740 -247 -1477 -274 -2176 -79 -111 31 -227 70 -323 108 -66 26 -64 26 -83
-7 -9 -15 -103 -171 -209 -346 -106 -176 -203 -346 -216 -379 -37 -94 -77
-162 -514 -887 -327 -543 -354 -583 -432 -662 -103 -104 -198 -148 -323 -148
-139 0 -256 58 -410 201 l-67 63 16 -39 c14 -33 42 -85 104 -192 4 -7 43 -58
86 -115 44 -57 116 -150 160 -208 132 -174 147 -193 211 -255 79 -78 159 -139
221 -167 38 -18 67 -23 129 -23 123 0 175 36 265 187 39 66 330 547 681 1128
128 212 241 408 250 435 25 68 25 195 0 266 -33 98 -78 176 -154 272 l-27 34
76 124 c42 68 97 157 121 196 24 40 47 74 51 77 4 2 41 -16 82 -40 495 -292
1103 -449 1700 -440 422 7 771 66 1160 196 319 107 560 223 880 421 309 192
657 511 897 823 344 445 560 952 635 1486 17 124 17 534 0 660 -21 153 -70
361 -118 503 -58 169 -63 177 -64 102z"/>
</g>
</svg>
