<?xml version="1.0" standalone="no"?>
<!DOCTYPE svg PUBLIC "-//W3C//DTD SVG 20010904//EN"
 "http://www.w3.org/TR/2001/REC-SVG-20010904/DTD/svg10.dtd">
<svg version="1.0" xmlns="http://www.w3.org/2000/svg"
 width="822.000000pt" height="765.000000pt" viewBox="0 0 822.000000 765.000000"
 preserveAspectRatio="xMidYMid meet">

<g transform="translate(0.000000,765.000000) scale(0.100000,-0.100000)"
fill="#000000" stroke="none">
<path d="M4335 7575 c-1204 -40 -2223 -76 -2264 -79 -80 -8 -199 -33 -216 -45
-5 -5 -28 -14 -50 -21 -96 -31 -244 -131 -335 -227 -61 -64 -123 -140 -134
-163 -3 -8 -18 -35 -32 -60 -27 -48 -52 -103 -134 -300 -29 -69 -136 -318
-237 -555 -102 -236 -210 -488 -240 -560 -31 -71 -89 -209 -131 -305 -41 -96
-101 -236 -132 -310 -97 -228 -159 -372 -185 -430 -65 -146 -176 -415 -195
-476 -33 -104 -40 -194 -22 -294 35 -198 144 -320 329 -365 32 -8 672 -109
1423 -225 751 -116 1372 -214 1380 -219 14 -7 25 -25 79 -123 47 -86 64 -115
91 -163 16 -27 38 -69 49 -91 10 -23 24 -45 30 -48 6 -4 11 -14 11 -23 0 -9
11 -31 25 -49 14 -18 25 -38 25 -45 0 -7 11 -26 24 -44 13 -17 31 -47 40 -66
8 -19 38 -72 65 -119 28 -47 55 -96 62 -110 6 -14 15 -32 20 -40 4 -8 29 -53
55 -100 26 -47 55 -97 66 -112 10 -14 18 -31 18 -36 0 -6 22 -46 48 -89 27
-44 51 -88 54 -99 11 -42 140 -224 196 -275 65 -61 126 -86 216 -92 50 -4 67
0 115 25 31 16 68 43 84 60 26 29 87 146 87 168 0 6 7 35 16 63 8 29 20 70 26
92 22 84 31 111 39 127 5 10 9 29 9 42 0 14 5 28 10 31 6 3 10 21 10 40 0 19
5 37 10 40 6 3 10 19 10 35 0 16 5 32 10 35 6 3 10 19 10 35 0 16 5 32 10 35
6 3 10 19 10 35 0 16 5 32 10 35 6 3 10 19 10 35 0 16 5 32 10 35 6 3 10 19
10 35 0 16 5 32 10 35 6 3 10 19 10 35 0 16 5 32 10 35 6 3 10 19 10 35 0 16
5 32 10 35 6 3 10 19 10 35 0 16 5 32 10 35 6 3 10 19 10 35 0 16 5 32 10 35
6 3 10 19 10 35 0 16 4 32 10 35 6 3 10 20 10 36 0 24 4 29 18 25 40 -12 355
-55 442 -61 54 -3 130 -1 175 5 44 7 91 13 105 15 41 6 161 46 230 78 63 29
225 130 245 153 6 7 32 31 59 53 26 23 65 65 86 94 21 29 44 59 52 67 38 43
138 281 138 328 0 12 4 23 9 26 5 3 11 20 14 38 3 18 13 62 22 98 9 36 18 76
21 90 3 14 9 34 14 45 4 11 13 45 19 75 20 96 22 105 31 125 4 11 13 45 19 75
20 96 22 105 31 125 7 18 21 81 37 160 3 17 9 35 13 40 4 6 11 35 15 65 4 30
11 60 15 65 4 6 10 24 13 40 13 69 29 141 35 155 3 8 12 40 19 70 7 30 18 73
24 95 6 22 16 66 22 97 7 31 15 60 20 64 4 4 7 17 7 30 0 12 7 44 15 70 17 59
53 198 69 274 7 30 15 62 18 70 4 8 10 38 13 65 4 28 10 55 13 60 4 6 12 33
19 60 6 28 18 77 26 110 8 33 22 89 31 125 20 80 41 166 61 245 9 33 20 83 26
110 5 28 14 59 19 70 5 11 12 40 16 65 3 25 10 50 14 55 4 6 10 30 14 54 4 24
10 49 14 55 4 6 12 36 19 66 6 30 21 93 33 140 11 47 25 108 31 135 5 28 14
59 19 70 5 11 17 62 26 114 21 121 14 206 -28 313 -25 67 -42 93 -94 146 -35
36 -81 74 -102 84 -20 10 -48 25 -62 33 -27 15 -109 45 -180 65 -27 8 -115 14
-225 16 -99 1 -1165 -31 -2370 -71z m644 -720 c18 -7 7 -91 -15 -116 -9 -10
-14 -30 -12 -51 l3 -33 99 -5 c122 -6 128 -12 101 -97 -11 -32 -23 -63 -28
-70 -5 -7 -13 -27 -17 -45 -35 -140 -54 -204 -65 -213 -7 -5 -15 -26 -18 -45
-8 -58 -50 -194 -63 -205 -6 -5 -14 -28 -18 -50 -3 -22 -13 -65 -22 -95 -9
-30 -18 -66 -21 -80 -3 -14 -11 -32 -17 -40 -7 -8 -18 -37 -24 -65 -25 -103
-45 -160 -60 -172 -16 -13 -128 -18 -156 -7 -9 3 -16 12 -16 20 0 18 -32 34
-69 34 -32 0 -51 -22 -51 -58 0 -11 -7 -25 -15 -32 -19 -16 -1 -42 22 -33 13
5 15 2 9 -18 -5 -13 -10 -38 -13 -56 -3 -18 -11 -38 -19 -44 -8 -6 -14 -19
-14 -28 0 -9 -8 -37 -17 -63 -13 -37 -22 -48 -39 -48 -24 0 -50 -49 -40 -75 8
-21 109 -21 126 0 9 11 33 15 86 15 l74 0 0 -39 c0 -21 -6 -44 -14 -50 -8 -6
-16 -26 -19 -44 -7 -48 -45 -188 -61 -222 -22 -50 -38 -104 -32 -113 3 -5 51
-12 107 -15 124 -8 135 -15 119 -78 -7 -24 -14 -57 -17 -74 -3 -16 -12 -34
-19 -38 -8 -4 -14 -20 -14 -35 0 -16 -4 -32 -9 -38 -5 -5 -11 -22 -13 -39 -2
-24 -9 -31 -32 -35 -22 -4 -32 -13 -38 -35 -32 -110 -38 -139 -29 -148 5 -5
45 -13 88 -18 71 -7 79 -6 92 12 19 26 82 26 106 -1 17 -19 17 -23 3 -53 -21
-44 -38 -99 -38 -125 0 -11 -4 -24 -10 -27 -5 -3 -10 -19 -10 -35 0 -18 -11
-40 -27 -58 l-28 -29 -160 16 -160 16 -3 33 c-3 30 -1 32 27 32 25 0 32 5 37
28 4 15 13 52 22 82 8 30 15 68 16 84 1 26 -3 31 -33 37 -18 4 -69 9 -113 10
-92 4 -88 8 -113 -86 -10 -33 -22 -73 -28 -89 -9 -26 -8 -31 11 -44 l22 -14
-20 -28 c-19 -27 -23 -28 -78 -23 -31 3 -61 9 -67 13 -5 4 -46 10 -89 14 -78
6 -110 19 -103 40 2 6 14 13 28 16 16 4 25 14 27 30 2 14 10 32 17 40 12 15
22 46 32 109 7 45 -14 61 -82 61 -28 0 -56 5 -62 11 -6 6 -28 9 -49 7 -36 -3
-39 -5 -47 -43 -4 -22 -10 -52 -14 -67 -3 -15 -11 -33 -19 -39 -19 -15 -18
-68 1 -75 21 -8 19 -41 -3 -53 -12 -7 -64 -6 -152 1 -114 10 -137 15 -159 34
-25 21 -25 23 -8 41 9 11 17 27 17 36 0 9 4 26 9 39 5 13 14 43 21 68 7 25 16
52 21 60 5 8 13 25 19 38 12 28 55 30 63 3 4 -16 18 -20 89 -26 107 -9 132 -5
137 20 2 11 9 24 17 28 8 4 14 20 14 35 0 16 4 32 9 38 5 5 11 29 13 54 l3 44
-40 7 c-22 4 -67 9 -100 10 -54 3 -61 1 -70 -20 -10 -22 -12 -22 -110 -16 -55
4 -104 11 -110 15 -5 4 -91 12 -190 19 -227 15 -232 16 -231 44 1 19 -5 22
-47 25 -32 2 -48 -1 -51 -10 -2 -7 -10 -33 -17 -56 -10 -34 -10 -48 -1 -63 20
-31 12 -70 -29 -154 -5 -11 -21 -56 -34 -100 -14 -43 -35 -89 -47 -102 -19
-20 -28 -22 -77 -17 -31 3 -65 9 -76 14 -11 5 -83 14 -160 20 -206 16 -205 16
-205 54 0 36 21 101 38 118 7 7 12 19 12 27 0 20 56 187 73 221 8 14 19 44 27
67 21 68 32 73 133 66 75 -5 87 -8 87 -24 0 -29 27 -36 157 -44 l123 -8 10 24
c5 13 14 31 19 39 14 25 31 85 31 112 0 42 -26 55 -123 60 -65 3 -90 1 -98 -9
-20 -23 -31 -14 -24 20 11 48 28 77 55 90 23 12 60 90 60 128 0 8 5 20 11 26
7 7 24 49 39 95 l27 83 79 0 c44 0 147 -4 231 -8 l152 -9 6 29 c3 15 10 36 16
45 5 10 9 29 9 42 0 13 7 26 15 30 16 6 21 61 6 71 -5 3 -191 14 -413 25 -540
27 -698 36 -704 42 -2 3 0 18 7 34 25 62 28 70 41 117 18 66 33 78 83 67 22
-5 170 -14 329 -20 288 -11 289 -11 311 10 13 12 25 34 28 48 3 15 10 47 17
72 16 65 5 70 -155 70 -72 0 -135 4 -140 9 -6 5 -116 12 -245 15 -230 7 -236
7 -254 -13 -11 -12 -31 -21 -48 -21 -25 0 -28 3 -28 34 0 19 5 38 10 41 6 3
10 16 10 27 0 12 6 29 13 37 7 9 28 63 47 121 18 58 39 112 47 121 7 8 13 21
13 29 0 16 48 151 59 165 5 5 14 27 20 47 7 20 18 42 26 48 10 8 107 12 322
13 l308 2 20 56 c11 31 25 62 31 70 7 8 14 23 16 34 3 19 13 20 215 25 243 6
233 1 268 114 30 100 -32 91 650 88 330 -1 606 -5 614 -7z m-2683 -1655 c5 -5
65 -13 132 -17 68 -3 125 -10 128 -15 3 -4 41 -8 85 -8 73 0 79 -2 79 -20 0
-11 -4 -28 -9 -38 -5 -9 -14 -37 -21 -62 -24 -91 -24 -90 -86 -90 -49 0 -57
-3 -61 -21 -6 -21 -9 -21 -155 -14 -188 9 -228 26 -199 83 12 23 51 147 51
161 0 11 30 49 41 50 3 1 9 -3 15 -9z m-143 -856 c77 -6 77 -7 77 -35 0 -41
-51 -188 -89 -259 -7 -12 -29 -14 -117 -12 -60 1 -113 7 -118 12 -6 6 -18 10
-27 10 -9 0 -22 7 -29 15 -10 13 -10 19 4 33 9 10 16 28 16 40 0 11 5 24 10
27 6 3 10 17 10 30 0 32 34 109 60 135 19 19 30 21 74 16 28 -3 86 -8 129 -12z"/>
<path d="M4159 6593 c-21 -51 -32 -98 -33 -138 -1 -33 2 -40 19 -42 11 -1 55
-5 98 -8 86 -7 88 -9 63 -80 -8 -22 -20 -61 -27 -87 l-13 -48 -118 0 -118 0
-19 -44 c-30 -64 -44 -137 -31 -150 7 -7 82 -12 203 -14 106 -2 196 -8 202
-13 5 -5 69 -9 141 -9 l133 0 15 32 c9 17 16 37 16 45 0 19 31 115 41 128 4 6
12 29 18 50 5 22 15 58 21 80 7 22 13 54 14 70 l1 30 -115 5 c-64 3 -109 9
-102 13 6 5 12 18 12 31 0 12 4 26 8 32 14 15 35 120 28 133 -5 8 -76 11 -227
11 l-219 0 -11 -27z"/>
<path d="M3261 5990 c-4 -8 -14 -35 -21 -60 -7 -25 -20 -52 -28 -62 -7 -9 -12
-29 -10 -45 l3 -28 209 -9 c240 -9 222 -15 252 83 9 31 21 60 26 66 14 15 9
44 -9 54 -10 5 -107 11 -216 13 -171 3 -200 2 -206 -12z"/>
<path d="M3555 5523 c-8 -19 -15 -41 -15 -47 0 -7 -4 -16 -9 -21 -14 -14 -41
-97 -35 -107 3 -4 23 -8 44 -8 21 0 42 -4 45 -10 3 -5 36 -10 72 -10 l66 0 -7
-42 c-4 -23 -13 -49 -20 -58 -17 -20 -39 -98 -31 -110 3 -6 35 -10 70 -10 35
0 66 -4 69 -9 3 -4 73 -11 156 -15 163 -8 180 -4 180 40 0 12 5 26 10 29 6 3
10 19 10 34 0 16 7 34 16 41 9 8 14 25 12 44 l-3 31 -105 5 -105 5 2 30 c2 45
14 88 29 105 7 8 14 33 16 55 l3 40 -90 6 c-49 4 -152 9 -228 12 l-137 6 -15
-36z"/>
<path d="M3405 5105 c-13 -49 -30 -102 -37 -111 -5 -7 -20 -52 -34 -100 -14
-49 -31 -98 -37 -109 -19 -33 -36 -88 -31 -97 3 -4 24 -8 48 -8 23 0 47 -5 54
-12 7 -7 123 -19 307 -32 l295 -20 0 -28 c0 -15 -4 -30 -10 -33 -5 -3 -10 -18
-10 -32 0 -14 -6 -31 -14 -37 -7 -6 -16 -30 -20 -54 -5 -35 -3 -43 11 -48 10
-3 27 -10 38 -14 11 -5 52 -11 92 -14 67 -4 72 -3 87 19 9 13 16 33 16 44 0
10 6 21 14 24 7 3 16 20 19 39 3 18 10 51 17 73 6 22 14 54 17 70 3 17 11 36
17 44 17 21 46 135 37 144 -5 5 -87 13 -182 18 -96 6 -181 14 -190 19 -8 4
-83 11 -166 15 -157 8 -188 14 -165 37 6 6 12 22 12 34 0 12 6 27 14 33 8 6
16 24 19 39 3 15 9 39 12 54 5 20 2 29 -12 36 -25 14 -215 20 -218 7z"/>
<path d="M7782 6668 c-9 -12 -183 -702 -423 -1678 -38 -157 -76 -305 -84 -330
-18 -57 -54 -200 -67 -265 -5 -27 -12 -57 -16 -65 -3 -8 -12 -40 -19 -70 -7
-30 -18 -71 -23 -90 -5 -19 -14 -60 -20 -90 -7 -30 -14 -62 -18 -70 -7 -18
-30 -112 -39 -155 -3 -16 -9 -34 -13 -40 -4 -5 -10 -35 -14 -65 -4 -30 -11
-59 -15 -65 -5 -5 -11 -26 -14 -45 -7 -41 -31 -138 -40 -160 -3 -8 -8 -28 -11
-45 -7 -40 -31 -136 -39 -155 -3 -8 -8 -28 -11 -45 -7 -39 -31 -136 -38 -155
-4 -8 -9 -28 -13 -45 -3 -16 -12 -57 -20 -90 -8 -33 -17 -73 -20 -90 -4 -16
-10 -39 -15 -50 -5 -11 -11 -33 -15 -50 -17 -85 -23 -104 -38 -126 -10 -13
-17 -30 -17 -38 0 -8 -11 -29 -25 -47 -14 -18 -25 -37 -25 -41 0 -8 -17 -33
-67 -102 -37 -48 -166 -171 -182 -171 -4 0 -20 -12 -37 -27 -17 -16 -46 -36
-65 -46 -19 -9 -57 -30 -85 -45 -59 -32 -133 -62 -154 -62 -8 0 -27 -7 -42
-14 -15 -8 -60 -20 -101 -26 -144 -21 -222 -19 -461 17 -238 35 -245 35 -246
-7 0 -8 -8 -35 -16 -60 -9 -25 -21 -61 -26 -80 -5 -19 -13 -50 -19 -67 -5 -18
-13 -49 -19 -68 -5 -19 -14 -51 -20 -70 -5 -19 -15 -52 -21 -72 -5 -21 -14
-53 -20 -70 -20 -72 -31 -110 -39 -143 -9 -35 -22 -82 -41 -150 -6 -19 -14
-51 -19 -70 -14 -60 -80 -293 -98 -345 -24 -73 -79 -153 -124 -182 -25 -15
-62 -27 -101 -31 -81 -9 -83 -24 -19 -128 27 -44 51 -89 54 -100 11 -42 140
-224 196 -275 65 -61 126 -86 216 -92 50 -4 67 0 115 25 31 16 68 43 84 60 26
29 87 146 87 168 0 6 7 35 16 63 8 29 20 70 26 92 22 84 31 111 39 127 5 10 9
29 9 42 0 14 5 28 10 31 6 3 10 21 10 40 0 19 5 37 10 40 6 3 10 19 10 35 0
16 5 32 10 35 6 3 10 19 10 35 0 16 5 32 10 35 6 3 10 19 10 35 0 16 5 32 10
35 6 3 10 19 10 35 0 16 5 32 10 35 6 3 10 19 10 35 0 16 5 32 10 35 6 3 10
19 10 35 0 16 5 32 10 35 6 3 10 19 10 35 0 16 5 32 10 35 6 3 10 19 10 35 0
16 5 32 10 35 6 3 10 19 10 35 0 16 5 32 10 35 6 3 10 19 10 35 0 16 5 32 10
35 6 3 10 20 10 36 0 24 4 29 18 25 40 -12 355 -55 442 -61 54 -3 130 -1 175
5 44 7 91 13 105 15 41 6 161 46 230 78 63 29 225 130 245 153 6 7 32 31 59
53 26 23 65 65 86 94 21 29 44 59 52 67 38 43 138 281 138 328 0 12 4 23 9 26
5 3 11 20 14 38 3 18 13 62 22 98 9 36 18 76 21 90 3 14 9 34 14 45 4 11 13
45 19 75 20 96 22 105 31 125 4 11 13 45 19 75 20 96 22 105 31 125 7 18 21
81 37 160 3 17 9 35 13 40 4 6 11 35 15 65 4 30 11 60 15 65 4 6 10 24 13 40
13 69 29 141 35 155 3 8 12 40 19 70 7 30 18 73 24 95 6 22 16 66 22 97 7 31
15 60 20 64 4 4 7 17 7 30 0 12 7 44 15 70 17 59 53 198 69 274 7 30 15 62 18
70 4 8 10 38 13 65 4 28 10 55 13 60 4 6 12 33 19 60 6 28 18 77 26 110 8 33
22 87 30 120 8 33 22 87 30 120 8 33 23 89 31 125 9 36 21 88 27 115 5 28 14
59 19 70 5 11 12 40 16 65 3 25 10 50 14 55 4 6 10 30 14 54 4 24 10 49 14 55
4 6 12 36 19 66 6 30 21 93 33 140 11 47 25 108 31 135 5 28 14 59 19 70 21
46 43 209 36 277 -11 116 -48 193 -225 458 -188 282 -184 276 -199 258z"/>
<path d="M826 2738 c-13 -37 -12 -112 2 -188 35 -198 144 -320 329 -365 119
-30 2075 -327 2085 -317 10 10 -25 90 -63 144 -11 14 -19 32 -19 39 0 6 -10
26 -23 43 -13 17 -47 76 -76 131 -74 140 -111 195 -135 200 -12 2 -475 74
-1031 160 -555 86 -1022 158 -1038 161 -18 4 -29 1 -31 -8z"/>
</g>
</svg>
