<?xml version="1.0" standalone="no"?>
<!DOCTYPE svg PUBLIC "-//W3C//DTD SVG 20010904//EN"
 "http://www.w3.org/TR/2001/REC-SVG-20010904/DTD/svg10.dtd">
<svg version="1.0" xmlns="http://www.w3.org/2000/svg"
 width="897.000000pt" height="882.000000pt" viewBox="0 0 897.000000 882.000000"
 preserveAspectRatio="xMidYMid meet">

<g transform="translate(0.000000,882.000000) scale(0.100000,-0.100000)"
fill="#000000" stroke="none">
<path d="M8095 8808 c-220 -5 -791 -16 -1270 -26 l-869 -17 -208 -685 c-114
-377 -236 -779 -271 -895 l-63 -210 170 -7 c94 -3 385 -11 646 -18 261 -6 812
-20 1225 -30 412 -11 751 -17 753 -15 3 2 103 417 223 922 120 505 223 935
228 956 l9 37 -87 -2 c-47 0 -266 -5 -486 -10z"/>
<path d="M4325 8733 c-44 -1 -332 -7 -640 -13 -308 -5 -682 -13 -831 -17
l-271 -6 -148 -386 c-81 -212 -225 -588 -320 -836 -95 -247 -291 -758 -435
-1135 -145 -377 -295 -770 -335 -875 -41 -104 -72 -192 -70 -193 2 -2 266 -23
587 -48 1145 -86 1654 -124 1718 -130 l65 -6 113 343 c62 189 284 862 492
1494 208 633 428 1300 488 1483 l110 332 -222 -2 c-121 -1 -257 -3 -301 -5z"/>
<path d="M8730 8013 l-66 -4 -179 -756 -180 -755 -280 6 c-154 4 -426 11 -605
16 -449 13 -1253 32 -1438 33 l-154 2 -57 -190 -57 -190 170 -7 c94 -3 385
-11 646 -18 261 -6 812 -20 1225 -30 412 -11 751 -17 753 -15 3 2 103 417 223
922 120 505 223 935 228 956 l9 37 -87 -2 c-47 -1 -115 -3 -151 -5z"/>
<path d="M4805 7928 c-2 -7 -243 -737 -534 -1623 l-529 -1610 -84 1 c-74 1
-181 9 -648 45 -114 8 -366 27 -1050 79 -135 10 -247 16 -249 15 -7 -7 -139
-360 -136 -363 2 -2 266 -23 587 -48 1145 -86 1654 -124 1718 -130 l65 -6 113
343 c62 189 284 862 492 1494 208 633 428 1300 488 1483 l110 332 -170 0
c-126 0 -170 -3 -173 -12z"/>
<path d="M5027 5693 c-4 -7 -112 -364 -658 -2168 -110 -363 -238 -784 -284
-935 -252 -827 -375 -1237 -375 -1246 0 -5 100 -26 223 -47 327 -57 720 -124
817 -142 47 -8 281 -49 520 -90 239 -41 473 -82 520 -90 47 -9 243 -43 435
-76 193 -33 390 -67 438 -76 49 -8 91 -12 94 -10 3 3 189 779 414 1724 226
945 479 2006 563 2358 84 352 152 641 151 642 -1 2 -82 7 -181 13 -98 5 -296
16 -439 25 -461 27 -776 44 -970 55 -104 5 -221 12 -260 15 -88 7 -940 55
-977 55 -15 0 -29 -3 -31 -7z"/>
<path d="M7885 4738 c-2 -7 -141 -591 -310 -1298 -743 -3124 -721 -3035 -741
-3033 -19 1 -115 18 -1209 208 -302 53 -667 116 -810 141 -143 24 -360 62
-483 83 -122 21 -224 36 -225 32 -11 -21 -100 -331 -96 -334 2 -2 103 -20 224
-41 293 -50 710 -122 815 -141 47 -8 281 -49 520 -90 239 -41 473 -82 520 -90
47 -9 243 -43 435 -76 193 -33 390 -67 438 -76 49 -8 91 -12 94 -10 4 5 288
1191 976 4082 l152 640 -50 7 c-93 12 -245 9 -250 -4z"/>
<path d="M777 3983 c-8 -21 -97 -252 -197 -513 -100 -261 -263 -686 -362 -945
-233 -608 -212 -544 -185 -550 12 -2 155 -27 317 -55 162 -28 333 -58 380 -66
291 -50 855 -149 1025 -178 195 -33 464 -80 635 -110 47 -9 88 -12 91 -8 4 4
16 37 27 73 11 36 172 526 357 1088 186 562 335 1024 333 1027 -3 2 -65 10
-139 18 -122 13 -917 102 -1844 206 -198 22 -374 42 -391 45 -29 5 -33 2 -47
-32z"/>
<path d="M3171 2958 c-5 -13 -141 -425 -302 -916 l-294 -894 -40 5 c-22 3
-130 21 -240 40 -323 57 -1341 234 -1680 293 -77 13 -149 24 -160 24 -17 0
-30 -27 -82 -162 -34 -90 -60 -165 -57 -167 2 -2 115 -23 251 -46 136 -24 327
-57 423 -74 390 -68 818 -142 1040 -180 217 -38 450 -78 660 -115 47 -9 88
-12 91 -8 4 4 16 37 27 73 11 36 172 526 357 1088 186 562 335 1024 333 1027
-4 4 -273 34 -304 34 -8 0 -18 -10 -23 -22z"/>
</g>
</svg>
