<?xml version="1.0" standalone="no"?>
<!DOCTYPE svg PUBLIC "-//W3C//DTD SVG 20010904//EN"
 "http://www.w3.org/TR/2001/REC-SVG-20010904/DTD/svg10.dtd">
<svg version="1.0" xmlns="http://www.w3.org/2000/svg"
 width="796.000000pt" height="824.000000pt" viewBox="0 0 796.000000 824.000000"
 preserveAspectRatio="xMidYMid meet">

<g transform="translate(0.000000,824.000000) scale(0.100000,-0.100000)"
fill="#000000" stroke="none">
<path d="M4707 8206 c-103 -24 -187 -76 -608 -375 -20 -14 -94 -66 -164 -116
-70 -49 -143 -101 -162 -115 -19 -14 -73 -52 -121 -85 -48 -33 -103 -72 -122
-86 -63 -47 -506 -360 -575 -406 -22 -14 -56 -38 -75 -53 -19 -15 -152 -110
-295 -210 -143 -101 -381 -270 -530 -375 -328 -233 -538 -381 -586 -415 -270
-190 -340 -242 -393 -296 -78 -78 -128 -175 -134 -256 -4 -50 -2 -59 21 -82
18 -18 37 -26 62 -26 46 0 88 -22 114 -59 26 -36 27 -106 3 -176 -10 -27 -157
-291 -327 -585 -807 -1399 -770 -1332 -790 -1404 -23 -77 -17 -161 14 -202 21
-28 40 -36 259 -96 350 -96 394 -102 501 -69 88 27 139 61 217 143 113 119
125 140 727 1223 82 149 164 290 180 315 50 73 109 125 180 160 l67 33 142 -7
c79 -4 235 -13 348 -21 113 -8 284 -19 380 -25 252 -15 290 -19 316 -37 39
-25 64 -75 64 -129 0 -58 22 -13 -359 -728 -324 -609 -479 -913 -523 -1028
-28 -74 -32 -94 -32 -193 -1 -119 11 -156 68 -217 35 -36 135 -94 188 -109 24
-6 56 -18 72 -26 24 -13 284 -89 723 -213 84 -24 183 -26 270 -5 84 20 214 86
270 138 109 101 90 63 1094 2066 457 912 467 931 582 1042 100 97 265 191 414
235 69 21 122 28 250 35 188 10 303 33 425 84 160 67 268 149 375 284 62 77
67 89 80 160 22 130 -7 186 -173 327 -27 23 -137 120 -245 215 -107 96 -220
195 -250 221 -65 57 -388 339 -443 388 -22 19 -78 69 -125 110 -47 42 -178
157 -290 255 -112 99 -263 232 -336 295 -72 63 -221 194 -331 291 -110 97
-211 183 -225 192 -34 23 -123 29 -192 13z"/>
<path d="M7407 4566 c-176 -195 -461 -316 -745 -316 -119 0 -240 -21 -342 -61
-154 -59 -337 -192 -422 -306 -42 -58 -134 -237 -923 -1811 -544 -1084 -551
-1097 -670 -1201 -62 -54 -190 -122 -265 -139 -129 -30 -162 -27 -370 33 -107
31 -226 65 -265 75 -38 11 -92 26 -120 34 -78 24 -80 23 -109 -51 -76 -202
-73 -341 10 -433 35 -39 133 -103 176 -115 12 -3 50 -17 83 -30 51 -21 479
-146 728 -214 237 -64 478 24 638 233 46 60 275 509 1074 2106 223 445 376
740 407 782 83 113 230 231 371 296 130 62 227 84 402 93 184 9 280 27 402 75
161 63 284 155 398 297 61 76 64 82 75 161 16 116 6 148 -73 228 -34 35 -87
83 -116 108 -29 25 -72 62 -94 82 -85 75 -172 148 -177 148 -3 0 -36 -33 -73
-74z"/>
<path d="M2325 3445 c-102 -50 -164 -119 -258 -290 -30 -55 -118 -215 -197
-355 -78 -140 -156 -280 -172 -310 -17 -30 -67 -120 -112 -200 -45 -80 -100
-176 -121 -215 -131 -240 -261 -390 -388 -451 -64 -30 -91 -37 -169 -42 l-93
-7 -64 -110 c-78 -134 -109 -207 -117 -278 -8 -64 6 -115 41 -147 42 -40 535
-170 645 -170 111 0 245 69 338 175 44 51 155 214 200 295 16 30 40 73 52 95
94 168 150 274 150 286 0 7 -24 38 -54 69 -51 52 -57 62 -90 173 -48 161 -50
226 -5 332 18 44 158 320 312 613 153 294 276 540 273 548 -9 24 -112 17 -171
-11z"/>
</g>
</svg>
