<?xml version="1.0" standalone="no"?>
<!DOCTYPE svg PUBLIC "-//W3C//DTD SVG 20010904//EN"
 "http://www.w3.org/TR/2001/REC-SVG-20010904/DTD/svg10.dtd">
<svg version="1.0" xmlns="http://www.w3.org/2000/svg"
 width="720.000000pt" height="823.000000pt" viewBox="0 0 720.000000 823.000000"
 preserveAspectRatio="xMidYMid meet">

<g transform="translate(0.000000,823.000000) scale(0.100000,-0.100000)"
fill="#000000" stroke="none">
<path d="M3565 8090 c-627 -70 -1169 -133 -1204 -139 -100 -19 -178 -59 -251
-132 -59 -59 -68 -74 -103 -169 -22 -58 -43 -114 -48 -125 -4 -11 -17 -47 -28
-80 -11 -33 -23 -61 -28 -62 -4 -1 -125 -12 -268 -23 -143 -12 -288 -28 -323
-35 -208 -48 -462 -270 -566 -496 -58 -126 -76 -169 -76 -176 0 -5 -6 -19 -13
-33 -7 -14 -24 -54 -37 -90 -13 -36 -27 -69 -31 -75 -4 -5 -15 -37 -24 -70
-10 -33 -21 -65 -26 -70 -9 -12 -14 -32 -34 -143 -8 -40 -16 -76 -18 -80 -19
-30 -31 -367 -15 -389 5 -6 5 -14 -2 -18 -6 -3 -8 -11 -5 -16 11 -16 33 -114
29 -121 -3 -4 1 -18 8 -30 6 -13 11 -31 9 -40 -1 -10 3 -18 8 -18 6 0 11 -6
11 -12 1 -7 9 -31 20 -53 11 -22 19 -44 20 -50 0 -5 11 -23 25 -39 14 -16 24
-34 23 -38 -4 -10 53 -78 118 -143 53 -53 216 -156 262 -166 20 -4 56 -13 80
-20 41 -11 42 -13 42 -53 0 -39 4 -88 14 -186 10 -101 15 -130 23 -142 4 -7 6
-21 5 -31 -2 -10 3 -29 12 -41 11 -17 12 -26 3 -35 -8 -8 -8 -11 0 -11 12 0
22 -21 29 -60 5 -26 35 -96 61 -140 7 -14 22 -41 31 -60 9 -19 23 -39 29 -43
7 -4 13 -15 13 -22 0 -8 5 -15 10 -15 6 0 10 -6 10 -14 0 -7 11 -22 25 -32 14
-10 25 -27 25 -37 0 -10 8 -21 18 -24 22 -9 36 -22 51 -51 6 -12 17 -22 24
-22 7 0 29 -18 49 -40 21 -22 49 -42 63 -46 14 -3 29 -12 33 -18 10 -17 77
-56 96 -56 9 0 16 -4 16 -10 0 -5 11 -12 25 -16 18 -4 25 -13 25 -29 0 -13 -4
-26 -9 -29 -5 -3 -12 -22 -16 -42 -3 -20 -10 -44 -15 -53 -5 -9 -20 -56 -35
-106 -14 -49 -30 -98 -35 -107 -5 -9 -13 -35 -16 -58 -4 -22 -10 -40 -15 -40
-5 0 -9 -8 -9 -17 0 -17 -71 -253 -90 -298 -18 -43 -90 -281 -90 -297 0 -9 -4
-18 -8 -20 -8 -3 -36 -89 -55 -171 -8 -35 -15 -46 -26 -42 -9 2 -212 47 -451
98 -436 94 -486 101 -590 83 -14 -2 -28 -5 -32 -5 -3 -1 -20 -12 -37 -27 -16
-14 -33 -25 -36 -24 -26 5 -137 -140 -151 -196 -4 -16 -13 -33 -19 -39 -13
-10 -45 -118 -51 -169 -2 -16 -8 -34 -12 -40 -16 -21 -1 -157 20 -183 6 -7 7
-13 4 -13 -11 0 34 -62 63 -87 13 -12 39 -24 57 -28 18 -3 34 -10 36 -14 4
-13 2703 -752 2760 -756 27 -2 52 -7 58 -10 16 -10 100 -12 100 -3 0 5 4 7 9
4 5 -3 25 1 45 9 20 9 41 13 46 10 6 -4 10 -1 10 5 0 6 4 8 10 5 6 -3 10 -1
10 5 0 6 5 8 10 5 6 -3 10 -2 10 4 0 5 18 22 40 38 22 15 40 32 40 36 0 4 15
24 34 43 19 20 37 50 41 70 3 19 13 38 21 41 8 3 14 19 14 39 0 19 5 34 10 34
6 0 10 14 10 31 0 17 4 28 10 24 10 -6 15 34 11 93 -1 17 2 32 8 32 5 0 8 41
7 98 -2 71 -7 104 -19 123 -9 14 -18 37 -19 52 -1 15 -8 27 -15 27 -7 0 -12 3
-11 8 5 16 -51 92 -68 92 -3 0 -20 11 -38 25 -18 14 -41 25 -50 25 -9 0 -15 4
-12 9 3 5 -13 12 -36 15 -23 4 -45 11 -48 16 -3 5 -252 63 -554 127 -515 111
-547 119 -542 138 3 11 10 43 17 70 6 28 15 55 19 60 5 6 11 31 15 58 4 26 11
47 15 47 4 0 10 19 14 43 4 23 13 60 20 82 8 22 24 74 36 115 12 41 25 82 29
90 5 9 12 36 16 60 4 25 11 50 15 55 4 6 11 26 14 45 4 19 11 44 16 55 5 11
15 45 23 75 8 30 22 80 31 110 40 134 46 158 57 205 6 28 15 55 19 60 4 6 11
29 15 52 9 57 15 60 116 68 31 3 75 12 97 19 22 8 43 12 46 9 3 -4 6 -2 6 3 0
5 13 10 30 11 16 1 48 12 72 24 23 12 59 24 78 27 19 2 55 16 78 30 24 14 55
26 69 28 13 1 41 14 61 28 20 13 49 28 64 31 16 4 38 18 50 31 13 13 30 24 39
24 8 0 26 11 39 25 13 14 28 25 34 25 12 0 93 52 116 74 8 8 43 35 77 60 35
25 71 54 82 63 10 10 45 41 79 68 33 28 63 60 66 73 4 12 11 22 16 22 16 0
150 139 150 155 0 8 4 15 8 15 5 0 15 11 22 25 7 13 21 27 31 30 9 3 22 18 27
33 6 15 26 43 46 63 19 20 38 48 42 63 6 25 22 31 82 29 7 -1 54 6 105 14 50
9 102 16 115 17 12 0 22 5 22 9 0 5 4 6 9 3 5 -3 31 1 57 9 27 8 57 15 66 15
10 0 42 11 72 25 30 14 60 25 67 25 7 0 31 8 53 19 23 10 68 29 100 41 32 13
91 40 130 61 39 21 109 57 155 81 46 24 96 55 112 69 16 15 31 24 34 21 3 -3
5 -1 5 4 0 6 18 20 40 33 22 12 40 26 40 31 0 4 13 13 29 18 16 6 34 20 41 31
6 12 16 21 22 21 6 0 19 10 29 22 11 11 19 18 19 15 0 -3 22 16 50 43 27 28
52 50 56 50 8 0 49 44 85 91 12 16 27 29 34 29 16 0 45 33 45 51 0 9 20 33 45
55 25 21 45 44 45 50 0 6 9 21 20 34 11 13 20 27 20 32 0 4 6 8 14 8 8 0 19
15 26 34 6 19 22 42 35 52 14 10 25 23 25 27 0 5 7 15 15 23 8 9 15 25 15 36
0 11 11 31 25 44 14 13 25 32 25 44 0 11 4 20 8 20 9 0 45 70 57 110 4 14 10
27 14 30 12 10 31 50 31 66 0 9 9 27 20 41 11 14 20 36 20 49 0 12 6 29 13 36
8 7 17 44 20 82 4 38 11 72 17 76 6 4 13 36 17 73 3 37 10 67 14 67 5 0 9 19
9 43 1 23 5 62 11 87 5 25 13 73 18 107 5 34 12 66 15 72 7 11 17 159 16 229
0 24 -7 57 -15 73 -9 16 -13 29 -10 29 8 0 -28 84 -42 98 -7 7 -13 20 -13 28
0 8 -7 14 -16 14 -10 0 -14 6 -10 15 3 9 0 15 -9 15 -8 0 -25 16 -37 35 -13
19 -28 35 -34 35 -6 0 -21 11 -34 25 -13 14 -28 25 -33 25 -6 0 -18 7 -26 14
-9 8 -32 18 -51 21 -19 3 -44 12 -55 19 -64 41 -204 42 -639 6 -204 -16 -378
-30 -388 -30 -11 0 -18 7 -18 20 0 11 5 20 10 20 6 0 10 20 10 45 0 25 5 45
10 45 6 0 10 12 10 27 0 15 4 40 10 57 22 70 48 200 42 210 -3 6 -7 18 -9 26
-3 22 -25 60 -35 60 -4 0 -8 6 -8 13 0 6 -24 23 -53 37 -43 21 -68 25 -147 26
-63 1 -485 -42 -1235 -126z m1987 -1137 c-2 -21 -7 -47 -12 -58 -5 -11 -11
-38 -13 -60 -9 -79 -49 -261 -63 -288 -8 -16 -14 -38 -14 -50 0 -12 -7 -31
-15 -41 -8 -11 -15 -32 -15 -48 0 -15 -4 -28 -10 -28 -5 0 -10 -9 -10 -20 0
-11 -4 -20 -8 -20 -5 0 -19 -22 -32 -49 -13 -28 -29 -52 -36 -55 -6 -2 -15
-18 -19 -35 -4 -17 -17 -39 -30 -49 -13 -11 -30 -31 -36 -46 -7 -14 -16 -26
-20 -26 -4 0 -9 -10 -12 -22 -4 -13 -16 -27 -29 -33 -13 -5 -27 -19 -32 -30
-5 -11 -38 -45 -73 -75 -36 -30 -74 -64 -86 -75 -39 -37 -202 -144 -247 -163
-19 -8 -41 -19 -48 -25 -7 -6 -58 -30 -113 -53 l-99 -42 0 29 c0 15 4 38 9 51
5 13 17 59 26 103 9 44 21 88 26 97 5 10 9 34 9 53 0 19 5 35 10 35 6 0 10 16
10 35 0 19 4 44 9 57 5 13 14 46 20 73 6 28 18 84 27 125 9 41 20 83 25 92 5
10 9 31 9 47 0 17 5 33 10 36 6 3 10 26 10 51 0 24 5 44 10 44 6 0 10 18 10
39 0 22 5 43 10 46 6 3 10 21 10 40 0 19 5 37 10 40 6 3 10 19 10 35 0 16 4
39 9 52 5 13 19 67 32 121 l23 97 50 1 c28 1 155 7 281 14 127 6 273 13 325
14 l96 1 -4 -37z m-3860 -165 c-3 -12 -11 -34 -19 -48 -7 -14 -13 -31 -13 -38
0 -7 -4 -20 -9 -30 -6 -9 -24 -57 -41 -107 -18 -49 -36 -99 -40 -110 -4 -11
-22 -60 -40 -110 -17 -49 -36 -99 -40 -110 -5 -11 -19 -49 -31 -85 -11 -36
-27 -78 -34 -95 -7 -16 -20 -52 -29 -80 -9 -27 -21 -59 -25 -70 -5 -11 -24
-60 -41 -110 -17 -49 -39 -107 -48 -128 l-17 -37 -26 22 c-14 13 -34 28 -44
34 -10 6 -23 18 -29 28 -6 10 -24 32 -41 50 -16 18 -37 48 -46 67 -24 51 -42
93 -44 104 -1 6 -3 12 -4 15 -2 3 -4 14 -6 25 -2 11 -7 36 -11 55 -7 36 -7
155 1 226 4 45 53 223 65 239 4 6 31 74 60 153 l54 142 75 1 c42 1 130 5 196
9 234 13 234 13 227 -12z"/>
<path d="M6693 6682 c-8 -5 -9 -20 -3 -52 6 -28 5 -57 -2 -78 -5 -19 -8 -46
-5 -60 3 -15 1 -49 -4 -77 -5 -27 -13 -77 -19 -110 -5 -33 -14 -80 -19 -105
-6 -25 -10 -64 -11 -87 0 -24 -4 -43 -9 -43 -4 0 -11 -30 -14 -67 -4 -37 -11
-69 -17 -73 -6 -4 -13 -38 -17 -76 -3 -38 -12 -75 -20 -82 -7 -7 -13 -24 -13
-36 0 -13 -9 -35 -20 -49 -11 -14 -20 -32 -20 -41 0 -16 -19 -56 -31 -66 -4
-3 -10 -16 -14 -30 -12 -40 -48 -110 -57 -110 -4 0 -8 -9 -8 -20 0 -12 -11
-31 -25 -44 -14 -13 -25 -33 -25 -44 0 -11 -7 -27 -15 -36 -8 -8 -15 -18 -15
-23 0 -4 -11 -17 -25 -27 -13 -10 -29 -33 -35 -52 -7 -19 -18 -34 -26 -34 -8
0 -14 -4 -14 -8 0 -5 -9 -19 -20 -32 -11 -13 -20 -28 -20 -34 0 -6 -20 -29
-45 -50 -25 -22 -45 -47 -45 -56 0 -18 -30 -50 -47 -50 -5 0 -20 -13 -32 -29
-36 -47 -77 -91 -85 -91 -4 0 -29 -22 -56 -50 -28 -27 -50 -46 -50 -43 0 3 -8
-4 -19 -15 -10 -12 -23 -22 -29 -22 -6 0 -16 -9 -22 -21 -7 -11 -25 -25 -41
-31 -16 -5 -29 -14 -29 -18 0 -5 -18 -19 -40 -31 -22 -13 -40 -27 -40 -33 0
-5 -2 -7 -5 -4 -3 3 -18 -6 -34 -21 -16 -14 -66 -45 -112 -69 -46 -24 -116
-60 -155 -81 -39 -21 -98 -48 -130 -61 -32 -12 -77 -31 -100 -41 -22 -11 -46
-19 -53 -19 -7 0 -37 -11 -67 -25 -30 -14 -62 -25 -72 -25 -9 0 -39 -7 -66
-15 -26 -8 -52 -12 -57 -9 -5 3 -9 2 -9 -3 0 -4 -10 -9 -22 -9 -13 -1 -65 -8
-115 -17 -51 -8 -98 -15 -105 -14 -60 2 -76 -4 -82 -29 -4 -15 -23 -43 -42
-63 -20 -20 -40 -48 -46 -63 -5 -15 -18 -30 -27 -33 -10 -3 -24 -17 -31 -30
-7 -14 -17 -25 -22 -25 -4 0 -8 -7 -8 -15 0 -16 -134 -155 -150 -155 -5 0 -12
-10 -16 -22 -3 -13 -33 -45 -66 -73 -34 -27 -69 -58 -79 -68 -11 -9 -47 -38
-82 -63 -34 -25 -69 -52 -77 -60 -23 -22 -104 -74 -116 -74 -6 0 -21 -11 -34
-25 -13 -14 -31 -25 -39 -25 -9 0 -26 -11 -39 -24 -12 -13 -34 -27 -50 -31
-15 -3 -44 -18 -64 -31 -20 -14 -48 -27 -61 -28 -14 -2 -45 -14 -69 -28 -23
-14 -59 -28 -78 -30 -19 -3 -55 -15 -78 -27 -24 -12 -56 -23 -72 -24 -17 -1
-30 -6 -30 -11 0 -5 -3 -7 -6 -3 -3 3 -24 -1 -46 -9 -22 -7 -66 -16 -97 -19
-101 -8 -107 -11 -116 -68 -4 -23 -11 -46 -15 -52 -4 -5 -13 -32 -19 -60 -11
-47 -17 -71 -57 -205 -9 -30 -23 -80 -31 -110 -8 -30 -19 -65 -25 -77 -6 -11
-8 -27 -6 -34 2 -7 115 -36 289 -74 156 -34 285 -61 287 -60 3 3 29 98 43 160
6 28 15 55 19 60 4 6 11 29 15 52 9 57 15 60 116 68 31 3 75 12 97 19 22 8 43
12 46 9 3 -4 6 -2 6 3 0 5 13 10 30 11 16 1 48 12 72 24 23 12 59 24 78 27 19
2 55 16 78 30 24 14 55 26 69 28 13 1 41 14 61 28 20 13 49 28 64 31 16 4 38
18 50 31 13 13 30 24 39 24 8 0 26 11 39 25 13 14 28 25 34 25 12 0 93 52 116
74 8 8 43 35 77 60 35 25 71 54 82 63 10 10 45 41 79 68 33 28 63 60 66 73 4
12 11 22 16 22 16 0 150 139 150 155 0 8 4 15 8 15 5 0 15 11 22 25 7 13 21
27 31 30 9 3 22 18 27 33 6 15 26 43 46 63 19 20 38 48 42 63 6 25 22 31 82
29 7 -1 54 6 105 14 50 9 102 16 115 17 12 0 22 5 22 9 0 5 4 6 9 3 5 -3 31 1
57 9 27 8 57 15 66 15 10 0 42 11 72 25 30 14 60 25 67 25 7 0 31 8 53 19 23
10 68 29 100 41 32 13 91 40 130 61 39 21 109 57 155 81 46 24 96 55 112 69
16 15 31 24 34 21 3 -3 5 -1 5 4 0 6 18 20 40 33 22 12 40 26 40 31 0 4 13 13
29 18 16 6 34 20 41 31 6 12 16 21 22 21 6 0 19 10 29 22 11 11 19 18 19 15 0
-3 22 16 50 43 27 28 52 50 56 50 8 0 49 44 85 91 12 16 27 29 34 29 16 0 45
33 45 51 0 9 20 33 45 55 25 21 45 44 45 50 0 6 9 21 20 34 11 13 20 27 20 32
0 4 6 8 14 8 8 0 19 15 26 34 6 19 22 42 35 52 14 10 25 23 25 27 0 5 7 15 15
23 8 9 15 25 15 36 0 11 11 31 25 44 14 13 25 32 25 44 0 11 4 20 8 20 9 0 45
70 57 110 4 14 10 27 14 30 12 10 31 50 31 66 0 9 9 27 20 41 11 14 20 36 20
49 0 12 6 29 13 36 8 7 17 44 20 82 4 38 11 72 17 76 6 4 13 36 17 73 3 37 10
67 14 67 5 0 9 19 9 43 1 23 5 62 11 87 5 25 13 73 18 107 5 34 12 66 15 72 7
11 17 159 16 229 0 24 -7 57 -15 73 -9 16 -13 29 -10 29 8 0 -28 84 -42 98 -7
7 -13 20 -13 28 0 8 -7 14 -16 14 -10 0 -14 6 -10 15 3 9 0 15 -9 15 -8 0 -25
16 -37 35 -13 19 -28 35 -34 35 -6 0 -21 11 -34 25 -13 14 -28 25 -33 25 -6 0
-18 7 -26 14 -9 8 -32 18 -51 21 -19 3 -44 12 -55 19 -11 7 -32 16 -47 19 -14
4 -32 9 -40 12 -7 3 -18 1 -25 -3z"/>
<path d="M806 1046 c2 -52 13 -107 26 -123 6 -7 7 -13 4 -13 -11 0 34 -62 63
-87 13 -12 39 -24 57 -28 18 -3 34 -10 36 -14 4 -13 2703 -752 2760 -756 27
-2 52 -7 58 -10 16 -10 100 -12 100 -3 0 5 4 7 9 4 5 -3 25 1 45 9 20 9 41 13
46 10 6 -4 10 -1 10 5 0 6 5 8 10 5 6 -3 10 -1 10 5 0 6 5 8 10 5 6 -3 10 -2
10 4 0 5 18 22 40 38 22 15 40 32 40 36 0 4 15 24 34 43 19 20 37 50 41 70 3
19 13 38 21 41 8 3 14 19 14 39 0 19 5 34 10 34 6 0 10 14 10 31 0 17 4 28 10
24 10 -6 15 34 11 93 -1 17 2 32 8 32 5 0 8 41 7 98 -2 71 -7 104 -19 123 -9
14 -18 37 -19 52 -1 15 -8 27 -15 27 -7 0 -12 3 -11 8 5 16 -51 92 -68 92 -3
0 -20 11 -38 25 -18 14 -41 25 -50 25 -9 0 -15 4 -12 9 3 5 -13 12 -36 15 -23
4 -45 11 -48 16 -3 5 -44 18 -92 28 l-86 19 -5 -40 c-3 -23 -3 -54 0 -69 3
-18 1 -28 -6 -28 -7 0 -11 -13 -10 -32 4 -59 -1 -99 -11 -93 -6 4 -10 -7 -10
-24 0 -17 -4 -31 -10 -31 -5 0 -10 -15 -10 -34 0 -20 -6 -36 -14 -39 -8 -3
-18 -22 -21 -41 -4 -20 -22 -50 -41 -70 -19 -19 -34 -39 -34 -43 0 -4 -18 -21
-40 -36 -22 -16 -40 -33 -40 -38 0 -6 -4 -7 -10 -4 -5 3 -10 1 -10 -5 0 -6 -4
-8 -10 -5 -5 3 -10 1 -10 -5 0 -6 -4 -9 -10 -5 -5 3 -26 -1 -46 -10 -20 -8
-40 -12 -45 -9 -5 3 -9 1 -9 -4 0 -9 -84 -7 -100 3 -6 3 -31 8 -58 10 -33 2
-2348 628 -2437 659 -6 2 -10 -14 -9 -38z"/>
</g>
</svg>
