<svg id="vector" xmlns="http://www.w3.org/2000/svg" width="154" height="159" viewBox="0 0 154 159"><g id="group"><path fill="#000" d="M 85 3.6 C 81.4 5.5 69.3 11.9 58 17.7 C 46.7 23.5 34.5 29.8 30.9 31.7 C 23.5 35.5 24.1 34.5 15 58.5 C 12.7 64.5 10.3 70.8 9.5 72.5 C 8.8 74.1 6.6 79.7 4.6 84.9 L 1.1 94.3 L 12.8 107.8 C 19.2 115.2 27.2 124.6 30.5 128.5 C 33.8 132.5 36.7 135.6 37 135.5 C 37.3 135.3 46.6 132.8 57.5 130 C 68.5 127.1 85.2 122.8 94.5 120.3 C 103.9 117.8 112.6 115.5 113.9 115.3 C 115.5 114.9 116.8 113.3 118.2 110.1 C 121.1 103.3 126.9 90.1 129.2 85.2 C 132.9 77.3 147.2 44.6 149.1 39.8 L 151 35 L 148.7 33.6 C 141 28.7 92.6 0 92.1 0.1 C 91.8 0.1 88.6 1.7 85 3.6 Z M 89.6 32.4 C 92.3 35.1 93 36.6 93 39.6 C 93 47.7 85.2 57.9 76.3 61.6 C 71.3 63.7 62.8 63.4 59.7 61 C 49.8 53.2 58.4 35.5 75 29.7 C 75.8 29.4 78.7 29.1 81.4 29.1 C 85.6 29 86.6 29.4 89.6 32.4 Z M 75.4 78.5 C 79.5 80.2 84.1 83 86.7 85.6 C 90.7 89.3 91.1 90.2 90.8 93.6 C 90.5 97.1 89.9 97.9 85.1 101.1 C 82.1 103.1 75.9 106 71.4 107.4 C 49 114.7 30 107.4 24.6 89.4 C 23.6 86.1 28.1 81.5 34.8 79 C 43.5 75.7 47.6 75.1 58.5 75.4 C 66.8 75.6 69.7 76.1 75.4 78.5 Z" stroke-width="1"/><path fill="#000" d="M 150.6 56.5 C 150.3 57.8 148.4 62.2 146.6 66.2 C 144.7 70.2 141.1 78.2 138.5 84 C 127 110.1 125.3 113.8 122.5 119.4 L 119.5 125.4 L 94.5 131.7 C 80.8 135.2 62.7 139.8 54.4 142 C 46.1 144.2 38.7 146 37.9 146 C 37.1 146 28.6 137 19 126 L 1.5 106 L 0.9 110.2 C 0.5 112.8 0.7 115.1 1.4 116.1 C 2 116.9 9.5 125.7 18.1 135.6 C 26.7 145.4 34.8 154.8 36.1 156.3 L 38.5 159.2 L 54.5 154.9 C 93.4 144.7 111.9 139.9 116.7 138.8 C 121.9 137.6 121.9 137.6 125 130.6 C 126.8 126.7 129.3 121 130.7 118 C 132.1 115 135.6 107.1 138.5 100.5 C 141.4 93.9 145.1 85.6 146.8 82 C 154.4 65.4 154.8 64.1 153.4 57.1 C 152.6 53.4 151.4 53.1 150.6 56.5 Z" stroke-width="1"/></g></svg>