<?xml version="1.0" standalone="no"?>
<!DOCTYPE svg PUBLIC "-//W3C//DTD SVG 20010904//EN"
 "http://www.w3.org/TR/2001/REC-SVG-20010904/DTD/svg10.dtd">
<svg version="1.0" xmlns="http://www.w3.org/2000/svg"
 width="852.000000pt" height="904.000000pt" viewBox="0 0 852.000000 904.000000"
 preserveAspectRatio="xMidYMid meet">

<g transform="translate(0.000000,904.000000) scale(0.100000,-0.100000)"
fill="#000000" stroke="none">
<path d="M4825 9028 c-71 -4 -139 -10 -150 -14 -11 -3 -45 -9 -75 -14 -127
-17 -531 -153 -580 -196 -9 -7 -33 -21 -55 -30 -22 -9 -58 -29 -82 -45 -23
-16 -45 -29 -49 -29 -4 0 -26 -16 -50 -35 -23 -19 -46 -35 -50 -35 -4 0 -17
-9 -28 -19 -12 -11 -40 -32 -63 -48 -53 -35 -146 -118 -237 -209 -68 -68 -92
-94 -146 -164 -14 -18 -36 -47 -50 -64 -14 -17 -41 -53 -60 -81 -18 -27 -36
-52 -39 -55 -9 -7 -36 -57 -71 -127 -17 -35 -35 -65 -41 -68 -5 -4 -9 -13 -9
-22 0 -9 -13 -45 -30 -80 -16 -34 -30 -69 -30 -76 0 -7 -4 -17 -9 -22 -4 -6
-23 -53 -40 -105 -18 -52 -36 -103 -42 -112 -5 -10 -9 -23 -9 -30 0 -7 -7 -22
-16 -33 -14 -19 -31 -20 -337 -26 -261 -5 -332 -9 -377 -23 -30 -9 -71 -21
-92 -25 -49 -11 -301 -136 -323 -161 -10 -11 -23 -20 -30 -20 -6 0 -24 -13
-40 -30 -16 -16 -34 -30 -40 -30 -19 0 -227 -219 -292 -306 -63 -86 -77 -108
-123 -199 -17 -33 -35 -67 -40 -75 -10 -16 -39 -83 -60 -140 -13 -34 -42 -104
-60 -145 -5 -11 -18 -42 -30 -70 -12 -27 -25 -59 -30 -70 -4 -11 -31 -76 -60
-145 -28 -69 -55 -134 -60 -145 -5 -11 -18 -42 -30 -70 -11 -27 -25 -58 -30
-67 -6 -10 -10 -23 -10 -29 0 -6 -14 -40 -30 -76 -16 -35 -30 -67 -30 -69 0
-4 -18 -46 -50 -119 -5 -11 -18 -42 -30 -70 -12 -27 -25 -59 -30 -70 -5 -11
-27 -65 -50 -120 -23 -55 -45 -109 -50 -120 -5 -11 -18 -42 -30 -70 -12 -27
-25 -59 -30 -70 -5 -11 -19 -45 -30 -75 -24 -61 -42 -104 -64 -153 -9 -17 -18
-44 -22 -60 -3 -15 -10 -27 -14 -27 -5 0 -12 -15 -15 -32 -4 -18 -13 -44 -21
-58 -7 -14 -23 -47 -34 -75 -12 -27 -25 -59 -30 -70 -5 -11 -21 -49 -35 -85
-14 -36 -30 -74 -35 -85 -19 -41 -50 -139 -45 -143 3 -3 0 -11 -7 -19 -6 -8
-15 -33 -19 -56 -4 -23 -9 -51 -12 -62 -23 -101 -26 -127 -27 -270 -1 -120 1
-155 18 -250 11 -59 61 -199 73 -203 5 -2 9 -10 9 -17 0 -8 6 -20 12 -27 7 -7
20 -26 28 -41 15 -30 88 -105 130 -134 14 -9 32 -24 40 -31 8 -8 42 -27 76
-42 62 -28 4956 -1309 5024 -1315 19 -2 64 -7 100 -10 84 -9 200 -11 200 -5 0
3 21 6 48 7 79 3 112 8 112 15 0 4 14 3 30 -2 17 -5 30 -5 30 0 0 5 6 7 14 4
7 -3 20 2 29 10 8 8 17 13 19 10 3 -2 24 3 48 11 23 8 46 12 51 9 5 -3 9 -1 9
4 0 6 9 8 20 5 12 -3 22 1 26 11 3 9 10 14 14 11 10 -6 80 26 80 37 0 4 7 5
15 2 8 -4 17 1 21 10 3 9 10 14 15 11 11 -8 79 22 79 34 0 5 34 26 76 47 42
20 78 43 81 51 3 7 9 11 13 8 4 -3 11 6 14 20 4 15 11 22 20 19 15 -6 76 45
76 64 0 7 4 11 9 8 5 -3 11 1 15 9 3 8 10 15 16 15 12 0 89 80 90 93 0 4 6 7
14 7 8 0 18 9 21 20 4 11 10 18 15 15 5 -3 11 8 15 25 4 16 11 30 16 30 5 0 9
7 9 15 0 8 6 12 13 10 7 -3 20 12 31 35 11 22 23 40 28 40 4 0 8 7 8 15 0 9 7
18 15 21 8 4 15 11 15 16 0 18 34 83 47 91 7 4 13 22 13 38 0 18 4 28 10 24 6
-4 10 7 10 24 0 21 5 31 15 31 9 0 15 9 15 25 0 14 5 25 10 25 6 0 10 14 10
30 0 17 4 30 9 30 5 0 17 34 26 75 9 41 21 75 26 75 5 0 9 23 9 50 0 28 5 50
10 50 6 0 10 25 10 55 0 30 5 55 10 55 6 0 10 27 10 60 0 33 4 60 9 60 5 0 11
26 14 58 3 31 8 71 11 87 7 33 19 97 36 190 6 33 26 148 45 255 19 107 48 276
65 375 17 99 36 205 41 235 21 119 30 177 35 233 3 31 10 57 15 57 5 0 9 23 9
50 0 28 5 50 10 50 6 0 10 25 10 55 0 30 5 55 10 55 6 0 10 24 10 54 0 30 4
57 9 60 5 3 11 29 14 58 3 29 13 96 22 148 9 52 19 119 22 148 3 28 9 52 14
52 5 0 9 25 9 55 0 30 4 55 9 55 5 0 12 26 14 58 3 31 13 98 22 147 9 50 19
116 22 148 3 31 8 57 13 57 4 0 10 24 14 53 15 126 32 226 39 233 4 4 7 26 7
50 0 23 5 44 11 46 6 2 11 42 11 101 1 53 5 97 9 97 9 0 3 110 -12 199 -6 36
-13 75 -14 86 -5 32 -25 79 -38 87 -9 6 -9 8 0 8 6 0 9 9 6 20 -3 11 -9 20
-13 20 -6 0 -34 54 -35 70 -2 15 -37 70 -45 70 -5 0 -7 6 -4 14 3 7 -11 31
-30 52 -20 22 -36 42 -36 46 0 9 -109 118 -119 118 -4 0 -18 11 -31 25 -13 14
-29 25 -35 25 -6 0 -22 11 -34 24 -41 44 -289 156 -356 162 -16 1 -79 12 -140
23 -100 19 -136 20 -390 16 -154 -3 -354 -8 -444 -11 l-163 -5 5 33 c3 18 11
53 17 78 6 25 14 60 17 78 3 18 9 35 14 38 5 3 9 20 9 39 0 19 5 37 10 40 6 3
10 20 10 36 0 17 4 38 10 48 5 10 12 44 15 77 4 32 11 67 17 77 5 10 7 25 4
32 -2 7 -1 43 5 79 5 41 5 75 -1 90 -6 15 -6 28 0 31 6 3 6 15 0 30 -5 13 -9
37 -9 52 0 50 -10 105 -22 119 -6 8 -9 20 -6 27 3 7 -1 21 -9 32 -8 10 -14 27
-14 37 0 10 -4 26 -9 36 -5 9 -19 36 -30 59 -30 61 -43 84 -68 112 -13 14 -23
29 -23 33 0 3 -33 38 -72 77 -94 90 -108 102 -108 94 0 -4 -12 5 -27 19 -25
22 -91 58 -108 58 -3 0 -13 7 -22 15 -8 8 -19 13 -24 10 -5 -4 -9 -1 -9 4 0 6
-10 11 -23 11 -13 0 -28 5 -35 12 -7 7 -12 9 -12 6 0 -4 -17 0 -37 8 -20 9
-46 18 -57 20 -78 16 -85 17 -181 28 -93 11 -140 12 -280 4z m-30 -641 c48 -6
177 -64 215 -98 19 -17 45 -37 58 -46 12 -8 22 -21 22 -28 0 -7 6 -18 14 -24
17 -14 60 -102 77 -156 11 -36 15 -182 6 -230 -2 -11 -7 -39 -12 -63 -4 -23
-12 -45 -16 -48 -5 -3 -9 -21 -9 -40 0 -19 -4 -34 -10 -34 -5 0 -10 -13 -10
-29 0 -17 -4 -32 -9 -35 -5 -3 -11 -20 -14 -38 -6 -40 -42 -167 -50 -175 -8
-7 -1586 -37 -1594 -30 -4 5 7 49 27 102 4 11 15 43 25 70 9 28 20 59 24 70 5
11 16 45 25 75 20 61 34 98 47 120 5 8 16 29 25 45 53 105 143 217 243 305 41
36 79 67 85 69 6 2 32 19 57 37 26 19 50 34 54 34 3 0 26 13 49 29 24 17 56
33 72 37 16 4 48 16 72 26 117 52 352 76 527 55z m-2237 -1762 c3 -2 -40 -125
-63 -180 -6 -16 -17 -43 -23 -60 -82 -229 -150 -413 -163 -437 -5 -10 -9 -23
-9 -30 0 -7 -6 -25 -14 -40 -8 -15 -17 -42 -21 -60 -4 -18 -10 -35 -14 -38 -7
-5 -52 -132 -48 -135 3 -2 628 -46 649 -45 12 0 19 11 24 35 3 19 10 35 15 35
5 0 9 10 9 23 0 12 7 35 15 51 8 15 15 36 15 45 0 9 7 29 15 45 8 15 15 34 15
41 0 7 7 26 15 41 8 16 15 39 15 52 0 12 5 22 10 22 6 0 10 9 10 21 0 12 6 35
14 52 7 18 22 59 32 92 10 33 21 65 25 70 4 6 10 26 14 45 4 19 10 40 14 45 4
6 15 37 26 70 10 33 22 65 26 70 4 6 10 26 14 45 4 19 11 40 15 45 4 6 10 22
14 38 l6 27 93 0 c50 0 417 -5 815 -12 542 -9 722 -15 722 -24 0 -6 -7 -31
-15 -54 -8 -23 -15 -53 -15 -66 0 -13 -4 -24 -10 -24 -5 0 -10 -11 -10 -25 0
-14 -4 -33 -9 -43 -10 -21 -32 -105 -39 -149 -2 -18 -8 -33 -13 -33 -5 0 -9
-13 -9 -28 0 -16 -3 -32 -7 -36 -5 -4 -13 -29 -20 -54 -13 -52 -23 -89 -48
-172 -9 -30 -19 -66 -22 -80 -2 -14 -8 -34 -13 -45 -10 -24 -30 -98 -37 -140
-3 -16 -9 -34 -13 -40 -7 -9 -23 -76 -24 -100 -1 -6 165 -22 422 -40 l422 -31
0 23 c0 13 5 23 10 23 6 0 10 18 10 40 0 22 5 40 10 40 6 0 10 9 10 21 0 26
29 148 41 171 5 10 9 31 9 48 0 16 5 30 10 30 6 0 10 11 10 23 0 13 10 59 21
103 12 43 24 94 26 112 3 18 9 35 14 38 5 3 9 18 9 35 0 16 4 37 9 47 5 9 19
58 31 107 34 136 41 167 47 208 3 20 9 37 14 37 5 0 9 11 9 25 l0 25 423 -6
c232 -3 431 -10 442 -14 11 -5 39 -14 62 -20 47 -12 153 -101 153 -129 0 -9 8
-27 17 -40 9 -14 18 -36 19 -50 1 -14 6 -43 10 -63 4 -26 3 -38 -5 -38 -6 0
-11 -17 -11 -40 0 -22 -4 -40 -10 -40 -5 0 -10 -22 -10 -50 0 -27 -4 -50 -10
-50 -5 0 -10 -22 -10 -50 0 -27 -4 -50 -10 -50 -5 0 -10 -18 -10 -39 0 -22 -4
-43 -10 -46 -5 -3 -10 -26 -10 -51 0 -24 -4 -44 -10 -44 -5 0 -10 -22 -10 -50
0 -27 -4 -50 -10 -50 -5 0 -10 -20 -10 -45 0 -25 -4 -45 -10 -45 -5 0 -10 -22
-10 -50 0 -27 -4 -50 -10 -50 -5 0 -10 -22 -10 -50 0 -27 -4 -50 -10 -50 -5 0
-10 -20 -10 -45 0 -25 -4 -45 -10 -45 -5 0 -10 -20 -10 -44 0 -25 -4 -47 -9
-50 -4 -3 -11 -27 -14 -53 -4 -27 -10 -66 -16 -88 -5 -22 -19 -89 -31 -150
-12 -60 -26 -118 -31 -127 -5 -10 -9 -33 -9 -52 0 -19 -4 -38 -10 -41 -5 -3
-10 -28 -10 -56 0 -27 -4 -49 -9 -49 -5 0 -11 -21 -14 -47 -3 -27 -10 -68 -16
-93 -5 -25 -18 -76 -27 -115 -9 -38 -19 -94 -21 -123 -3 -28 -9 -50 -14 -46
-5 3 -9 -14 -9 -37 0 -24 -4 -56 -10 -73 -22 -73 -40 -155 -40 -184 0 -18 -4
-32 -10 -32 -5 0 -10 -25 -10 -55 0 -30 -4 -55 -9 -55 -5 0 -11 -17 -14 -37
-13 -94 -32 -183 -39 -183 -4 0 -8 -25 -8 -55 0 -30 -4 -55 -10 -55 -5 0 -10
-13 -10 -28 0 -16 -7 -51 -15 -78 -8 -27 -15 -64 -15 -81 0 -18 -4 -33 -9 -33
-5 0 -11 -24 -14 -52 -6 -59 -29 -168 -38 -183 -4 -5 -10 -24 -13 -42 -4 -17
-17 -42 -29 -56 -28 -31 -46 -58 -53 -79 -3 -9 -19 -22 -35 -28 -15 -7 -31
-20 -34 -29 -7 -22 -72 -64 -89 -58 -8 3 -17 -1 -20 -10 -4 -8 -13 -13 -21 -9
-8 3 -15 1 -15 -5 0 -6 -4 -7 -10 -4 -5 3 -10 2 -10 -2 0 -5 -8 -9 -17 -10
-10 -1 -43 -4 -73 -7 -46 -4 -431 72 -2450 484 -1317 270 -2405 492 -2417 495
-39 9 -101 77 -119 130 -25 74 -19 169 16 257 12 29 29 71 38 93 8 22 24 60
34 85 28 66 33 79 58 145 13 33 31 79 41 102 11 23 19 47 19 53 0 5 4 18 10
28 13 24 32 71 81 197 23 61 46 114 51 119 4 6 8 17 8 25 0 9 6 27 13 41 7 14
21 48 31 75 10 28 24 64 32 80 7 17 65 163 129 325 64 162 120 304 125 315 5
11 23 55 39 98 66 166 93 233 105 262 8 17 22 53 32 80 10 28 24 61 31 75 7
14 13 31 13 38 0 7 4 20 10 30 10 18 24 52 61 145 12 31 26 57 30 57 4 0 10
10 13 23 14 51 138 157 214 184 48 16 82 18 345 15 161 -2 293 -5 295 -7z"/>
<path d="M8071 6037 c-1 -5 -14 -88 -31 -185 -16 -98 -32 -216 -36 -264 -4
-49 -11 -88 -15 -88 -5 0 -9 -20 -9 -43 0 -24 -3 -47 -7 -51 -7 -7 -24 -107
-39 -233 -4 -29 -10 -53 -14 -53 -5 0 -10 -26 -13 -57 -3 -32 -13 -98 -22
-148 -9 -49 -18 -112 -21 -140 -3 -27 -9 -59 -14 -70 -5 -11 -11 -40 -14 -65
-2 -25 -9 -70 -16 -100 -11 -53 -30 -167 -51 -300 -6 -36 -15 -90 -20 -120 -5
-30 -12 -76 -15 -102 -4 -27 -10 -48 -15 -48 -5 0 -9 -22 -9 -50 0 -27 -4 -50
-9 -50 -5 0 -12 -26 -15 -57 -5 -56 -14 -114 -35 -233 -5 -30 -24 -136 -41
-235 -17 -99 -46 -268 -65 -375 -19 -107 -39 -222 -45 -255 -17 -93 -29 -157
-36 -190 -3 -16 -8 -56 -11 -88 -3 -31 -9 -57 -14 -57 -5 0 -9 -27 -9 -60 0
-33 -4 -60 -10 -60 -5 0 -10 -25 -10 -55 0 -30 -4 -55 -10 -55 -5 0 -10 -22
-10 -50 0 -27 -4 -50 -9 -50 -5 0 -17 -34 -26 -75 -9 -41 -21 -75 -26 -75 -5
0 -9 -13 -9 -30 0 -16 -4 -30 -10 -30 -5 0 -10 -11 -10 -25 0 -16 -6 -25 -15
-25 -10 0 -15 -10 -15 -31 0 -17 -4 -28 -10 -24 -6 4 -10 -6 -10 -24 0 -16 -6
-34 -13 -38 -13 -8 -47 -73 -47 -91 0 -5 -7 -12 -15 -16 -8 -3 -15 -12 -15
-21 0 -8 -4 -15 -8 -15 -5 0 -17 -18 -28 -40 -11 -23 -24 -38 -31 -35 -7 2
-13 -2 -13 -10 0 -8 -4 -15 -9 -15 -5 0 -12 -14 -16 -30 -4 -17 -10 -28 -15
-25 -5 3 -11 -4 -15 -15 -3 -11 -13 -20 -21 -20 -8 0 -14 -3 -14 -7 -1 -13
-78 -93 -90 -93 -6 0 -13 -7 -16 -15 -4 -8 -10 -12 -15 -9 -5 3 -9 -1 -9 -8 0
-19 -61 -70 -76 -64 -9 3 -16 -4 -20 -19 -3 -14 -10 -23 -14 -20 -4 3 -10 -1
-13 -8 -3 -8 -39 -31 -81 -51 -42 -21 -76 -42 -76 -47 0 -12 -68 -42 -79 -34
-5 3 -12 -2 -15 -11 -4 -9 -13 -14 -21 -10 -8 3 -15 2 -15 -2 0 -11 -70 -43
-80 -37 -4 3 -11 -2 -14 -11 -4 -10 -14 -14 -26 -11 -11 3 -20 1 -20 -5 0 -5
-4 -7 -9 -4 -5 3 -28 -1 -51 -9 -24 -8 -45 -13 -48 -11 -2 3 -11 -2 -19 -10
-9 -8 -22 -13 -29 -10 -8 3 -14 1 -14 -4 0 -5 -13 -5 -30 0 -16 5 -30 6 -30 2
0 -7 -33 -12 -112 -15 -27 -1 -48 -4 -48 -7 0 -6 -116 -4 -200 5 -36 3 -81 8
-100 10 -27 2 -4668 1208 -4993 1297 -42 12 -80 19 -83 16 -7 -8 254 -529 275
-548 9 -8 23 -28 31 -43 15 -30 88 -105 130 -134 14 -9 32 -24 40 -31 8 -8 42
-27 76 -42 62 -28 4956 -1309 5024 -1315 19 -2 64 -7 100 -10 84 -9 200 -11
200 -5 0 3 21 6 48 7 79 3 112 8 112 15 0 4 14 3 30 -2 17 -5 30 -5 30 0 0 5
6 7 14 4 7 -3 20 2 29 10 8 8 17 13 19 10 3 -2 24 3 48 11 23 8 46 12 51 9 5
-3 9 -1 9 4 0 6 9 8 20 5 12 -3 22 1 26 11 3 9 10 14 14 11 10 -6 80 26 80 37
0 4 7 5 15 2 8 -4 17 1 21 10 3 9 10 14 15 11 11 -8 79 22 79 34 0 5 34 26 76
47 42 20 78 43 81 51 3 7 9 11 13 8 4 -3 11 6 14 20 4 15 11 22 20 19 15 -6
76 45 76 64 0 7 4 11 9 8 5 -3 11 1 15 9 3 8 10 15 16 15 12 0 89 80 90 93 0
4 6 7 14 7 8 0 18 9 21 20 4 11 10 18 15 15 5 -3 11 8 15 25 4 16 11 30 16 30
5 0 9 7 9 15 0 8 6 12 13 10 7 -3 20 12 31 35 11 22 23 40 28 40 4 0 8 7 8 15
0 9 7 18 15 21 8 4 15 11 15 16 0 18 34 83 47 91 7 4 13 22 13 38 0 18 4 28
10 24 6 -4 10 7 10 24 0 21 5 31 15 31 9 0 15 9 15 25 0 14 5 25 10 25 6 0 10
14 10 30 0 17 4 30 9 30 5 0 17 34 26 75 9 41 21 75 26 75 5 0 9 23 9 50 0 28
5 50 10 50 6 0 10 25 10 55 0 30 5 55 10 55 6 0 10 27 10 60 0 33 4 60 9 60 5
0 11 26 14 58 3 31 8 71 11 87 7 33 19 97 36 190 6 33 26 148 45 255 19 107
48 276 65 375 17 99 36 205 41 235 21 119 30 177 35 233 3 31 10 57 15 57 5 0
9 23 9 50 0 28 5 50 10 50 6 0 10 25 10 55 0 30 5 55 10 55 6 0 10 24 10 54 0
30 4 57 9 60 5 3 11 29 14 58 3 29 13 96 22 148 9 52 19 119 22 148 3 28 9 52
14 52 5 0 9 25 9 55 0 30 4 55 9 55 5 0 12 26 14 58 3 31 13 98 22 147 9 50
19 116 22 148 3 31 8 57 13 57 4 0 10 24 14 53 15 126 32 226 39 233 4 4 7 26
7 50 0 23 5 44 11 46 6 2 11 42 11 101 1 53 5 97 9 97 9 0 3 111 -12 199 -6
36 -12 73 -13 81 -2 8 -6 25 -10 37 -4 12 -9 31 -11 43 -4 23 -106 231 -116
240 -4 3 -68 127 -142 275 -75 149 -136 266 -136 262z"/>
</g>
</svg>
