<?xml version="1.0" standalone="no"?>
<!DOCTYPE svg PUBLIC "-//W3C//DTD SVG 20010904//EN"
 "http://www.w3.org/TR/2001/REC-SVG-20010904/DTD/svg10.dtd">
<svg version="1.0" xmlns="http://www.w3.org/2000/svg"
 width="698.000000pt" height="759.000000pt" viewBox="0 0 698.000000 759.000000"
 preserveAspectRatio="xMidYMid meet">

<g transform="translate(0.000000,759.000000) scale(0.100000,-0.100000)"
fill="#000000" stroke="none">
<path d="M3915 7544 c-1210 -45 -1326 -53 -1465 -99 -41 -14 -81 -25 -90 -25
-9 0 -33 -9 -55 -20 -22 -11 -43 -20 -47 -20 -12 0 -230 -108 -293 -145 -244
-143 -542 -420 -710 -660 -19 -27 -44 -66 -55 -85 -11 -19 -31 -53 -45 -75
-48 -80 -128 -251 -165 -355 -7 -19 -19 -48 -25 -65 -7 -16 -23 -57 -35 -90
-13 -33 -28 -73 -35 -90 -7 -16 -25 -61 -40 -100 -15 -38 -30 -79 -35 -90 -4
-11 -15 -40 -25 -65 -10 -25 -21 -54 -25 -65 -4 -11 -15 -36 -24 -57 -9 -20
-16 -41 -16 -47 0 -6 -4 -19 -9 -29 -19 -34 -41 -90 -41 -101 0 -6 -4 -19 -9
-29 -12 -21 -34 -76 -51 -122 -6 -19 -16 -44 -21 -55 -5 -11 -34 -85 -64 -165
-30 -80 -59 -154 -64 -165 -8 -18 -30 -73 -51 -130 -16 -41 -43 -111 -55 -140
-7 -16 -25 -64 -40 -105 -15 -41 -32 -79 -36 -84 -5 -6 -9 -16 -9 -24 0 -8 -6
-28 -14 -45 -7 -18 -21 -52 -31 -77 -10 -25 -24 -59 -31 -77 -8 -17 -14 -37
-14 -45 0 -8 -4 -18 -9 -23 -15 -17 -71 -176 -65 -186 3 -5 1 -9 -4 -9 -7 0
-32 -83 -38 -125 0 -5 -4 -17 -7 -25 -10 -27 -38 -186 -42 -241 -2 -30 -7 -90
-11 -134 -3 -44 -6 -84 -6 -90 1 -24 13 -183 16 -210 12 -96 18 -132 26 -150
5 -11 11 -38 15 -60 7 -43 8 -50 19 -80 5 -11 15 -38 23 -60 20 -55 43 -107
54 -125 5 -8 12 -23 15 -32 4 -10 11 -18 16 -18 5 0 6 -5 3 -10 -4 -6 7 -28
24 -49 17 -21 31 -42 31 -46 0 -3 6 -12 13 -19 6 -7 28 -32 47 -56 85 -107
251 -250 289 -250 6 0 11 -3 11 -7 0 -10 49 -33 68 -33 7 0 11 -4 8 -9 -3 -5
9 -11 27 -15 17 -3 46 -13 62 -21 40 -20 2715 -687 2731 -681 7 3 35 -1 63 -9
28 -7 51 -9 51 -5 0 5 13 5 30 0 30 -9 267 -5 330 5 48 8 112 16 133 18 9 1
17 5 17 9 0 4 6 5 13 2 8 -3 34 4 59 15 26 11 48 17 51 15 2 -3 28 4 57 15 29
11 57 18 62 15 4 -3 8 -1 8 4 0 5 6 9 14 9 8 0 30 8 51 17 20 10 42 15 50 12
7 -2 16 2 19 10 3 8 15 14 26 14 11 0 20 5 20 11 0 5 5 7 10 4 6 -3 10 -1 10
5 0 6 5 8 10 5 6 -3 10 -1 10 5 0 6 5 8 10 5 6 -3 10 -1 10 5 0 6 5 8 10 5 6
-3 10 -1 10 5 0 6 5 8 10 5 6 -3 10 -2 10 4 0 6 6 8 13 6 6 -3 24 6 38 19 15
14 30 22 33 19 3 -4 6 -1 6 6 0 7 5 9 10 6 6 -3 10 -1 10 5 0 6 5 8 10 5 6 -3
10 -1 10 5 0 6 4 9 9 5 6 -3 15 4 21 15 6 12 18 19 25 16 7 -2 15 1 18 7 3 7
17 19 33 27 16 8 45 27 65 42 19 15 47 32 62 39 15 7 27 18 27 24 0 14 63 65
79 65 6 0 11 6 11 13 0 7 9 18 20 25 11 7 20 20 20 29 0 9 2 14 5 11 5 -5 49
30 80 62 6 6 27 28 48 49 20 21 37 43 37 49 0 5 11 17 25 26 14 9 25 21 25 26
0 5 15 25 33 44 50 54 57 64 63 95 4 20 11 28 20 24 8 -3 14 1 14 10 0 8 7 20
15 27 8 7 15 21 15 31 0 11 7 19 15 19 9 0 18 12 22 30 3 17 9 30 14 30 5 0 9
9 9 20 0 11 4 20 9 20 5 0 17 18 27 40 10 22 21 40 25 40 5 0 11 17 15 37 4
21 13 44 21 51 7 7 13 20 13 28 0 8 5 14 10 14 6 0 10 11 10 25 0 14 6 28 14
31 8 3 17 26 21 51 4 25 13 52 21 60 8 8 14 30 14 49 0 19 4 34 9 34 5 0 12
20 15 45 4 24 11 47 17 50 5 4 9 26 9 51 0 25 4 43 9 40 4 -3 11 20 15 52 12
104 31 210 39 218 4 4 7 29 7 56 0 26 4 48 9 48 4 0 11 24 15 53 15 115 31
206 39 213 4 4 7 22 7 41 0 18 4 41 9 51 9 17 28 126 37 220 3 28 9 50 14 47
4 -2 10 27 14 65 3 38 11 81 16 95 6 14 10 42 10 61 0 19 4 34 9 34 4 0 11 35
15 77 4 43 11 82 15 88 5 5 11 28 14 50 14 105 31 200 37 205 4 3 11 40 15 82
3 43 11 80 16 84 5 3 9 20 9 39 0 19 7 60 15 92 8 31 15 74 15 95 0 21 4 38 9
38 5 0 12 34 16 75 4 41 11 75 15 75 4 0 11 36 15 80 4 44 11 80 15 80 4 0 11
36 14 80 4 44 11 80 16 80 4 0 11 36 15 80 4 44 11 80 15 80 5 0 11 34 15 75
4 41 11 75 15 75 4 0 11 35 15 78 4 42 11 82 15 87 9 11 9 325 0 325 -3 0 -6
19 -6 43 -2 67 -41 230 -73 302 -10 22 -17 42 -17 45 0 3 -10 22 -22 43 -13
20 -21 37 -18 37 7 0 -84 145 -113 180 -12 14 -37 46 -57 73 -20 26 -40 47
-43 47 -7 0 -66 48 -150 121 -19 16 -38 29 -42 29 -8 0 -36 20 -65 48 -7 7
-17 12 -21 11 -19 -3 -34 2 -29 10 3 4 -14 16 -37 26 -23 10 -60 26 -82 35
-69 31 -147 57 -215 73 -149 35 -175 40 -229 43 -31 1 -81 5 -111 7 -30 3
-577 -14 -1215 -39z m885 -999 c70 -17 223 -84 240 -105 3 -3 20 -16 38 -29
17 -12 32 -29 32 -36 0 -8 9 -20 20 -28 44 -31 142 -205 145 -257 1 -14 5 -36
9 -50 8 -30 15 -178 8 -185 -3 -3 -7 -30 -8 -60 -2 -30 -8 -64 -14 -74 -5 -11
-10 -31 -10 -46 0 -14 -7 -28 -15 -31 -8 -4 -15 -18 -15 -34 0 -15 -9 -39 -20
-53 -11 -14 -20 -31 -20 -39 0 -8 -8 -23 -18 -34 -9 -10 -22 -30 -29 -44 -25
-54 -198 -250 -222 -250 -6 0 -20 -13 -33 -30 -12 -16 -26 -30 -31 -30 -6 0
-25 -11 -43 -25 -18 -14 -39 -25 -46 -25 -8 0 -19 -5 -25 -11 -18 -18 -185
-99 -194 -93 -4 2 -35 -4 -67 -15 -92 -31 -336 -45 -367 -22 -5 5 -32 11 -59
15 -27 3 -54 10 -60 15 -6 5 -26 12 -45 16 -18 4 -41 15 -50 24 -9 9 -32 23
-50 31 -35 14 -151 121 -151 139 0 6 -11 18 -26 27 -14 9 -23 23 -20 30 2 6
-4 20 -14 29 -15 13 -24 39 -31 83 0 4 -5 12 -11 19 -5 7 -12 25 -14 40 -15
90 -21 102 -57 107 -18 3 -377 23 -799 46 -594 31 -777 44 -806 56 -62 24
-110 107 -106 182 3 48 34 138 55 161 11 11 19 24 19 29 0 15 103 112 119 112
8 0 22 7 31 15 40 36 114 37 896 16 417 -12 771 -21 786 -21 18 0 29 7 33 19
3 11 14 22 23 25 10 3 26 22 36 41 11 19 23 35 27 35 7 0 54 41 120 105 15 14
30 25 34 25 4 0 24 13 44 28 190 147 518 215 761 157z m-2780 -1737 c41 -5 80
-13 85 -17 6 -5 31 -14 57 -21 26 -7 49 -18 52 -25 2 -7 25 -23 50 -36 25 -12
46 -26 46 -30 0 -5 17 -25 38 -46 21 -21 44 -53 51 -70 7 -18 17 -33 22 -33 5
0 9 -8 9 -18 0 -10 6 -26 13 -37 12 -17 23 -53 44 -140 2 -11 7 -42 9 -70 3
-27 6 -50 7 -50 1 -1 410 -49 909 -108 588 -70 917 -113 935 -122 15 -8 36
-15 46 -15 10 0 15 -4 12 -10 -3 -5 3 -10 13 -10 11 0 25 -7 32 -15 7 -8 9
-15 5 -15 -3 0 7 -13 22 -29 49 -49 71 -122 67 -229 -2 -67 -7 -96 -18 -108
-9 -8 -16 -28 -16 -44 0 -21 -4 -28 -14 -24 -8 3 -16 -4 -19 -18 -4 -13 -20
-37 -38 -54 -17 -16 -38 -37 -47 -47 -42 -46 -165 -90 -253 -90 -15 0 -436 62
-935 138 l-909 138 -32 -31 c-18 -16 -33 -33 -33 -37 0 -13 -203 -204 -212
-199 -5 3 -29 -13 -55 -35 -25 -23 -52 -41 -61 -41 -8 0 -35 -11 -61 -24 -75
-40 -188 -69 -286 -72 -84 -4 -179 8 -214 26 -9 4 -45 22 -81 39 -41 18 -89
53 -128 91 -34 33 -60 60 -56 60 3 0 -4 13 -16 30 -11 16 -26 43 -31 60 -6 16
-15 30 -20 30 -5 0 -9 9 -9 19 0 11 -5 32 -11 48 -7 15 -13 37 -15 48 -1 11
-6 45 -11 75 -16 101 4 316 37 395 5 11 17 45 27 75 10 30 23 59 30 63 7 4 13
15 13 23 0 27 111 202 168 263 9 11 26 29 38 42 31 36 86 84 96 84 4 0 21 15
37 33 17 17 36 32 44 32 8 0 22 10 33 21 22 24 181 104 204 102 8 -1 23 3 35
10 24 13 125 32 180 34 22 0 74 -3 115 -9z"/>
<path d="M4353 6161 c-28 -10 -64 -26 -80 -37 -15 -10 -31 -19 -35 -19 -12 0
-108 -77 -108 -86 0 -5 -6 -9 -14 -9 -7 0 -19 -13 -26 -30 -7 -16 -16 -30 -21
-30 -5 0 -28 -39 -50 -87 -38 -79 -42 -94 -41 -162 1 -95 4 -119 22 -151 8
-14 14 -28 15 -31 0 -12 90 -105 115 -120 14 -9 58 -23 98 -33 62 -15 84 -16
138 -7 36 7 69 9 74 6 11 -7 153 68 199 106 20 16 40 29 46 29 6 0 19 15 30
33 10 17 26 38 36 45 10 6 20 25 24 41 3 16 13 32 21 35 8 3 14 14 14 24 0 10
7 33 15 50 16 31 23 137 13 202 -13 83 -82 169 -175 215 -49 25 -68 29 -157
31 -76 2 -114 -2 -153 -15z"/>
<path d="M1809 4416 c-2 -3 -24 -7 -49 -10 -50 -6 -110 -26 -131 -43 -8 -6
-23 -13 -35 -17 -29 -9 -152 -133 -170 -173 -9 -18 -20 -33 -25 -33 -5 0 -9
-8 -9 -19 0 -10 -6 -24 -14 -30 -8 -7 -17 -28 -21 -49 -4 -20 -9 -41 -13 -46
-14 -23 -19 -135 -9 -206 2 -19 12 -48 21 -65 9 -16 16 -34 16 -39 0 -19 103
-106 125 -106 13 0 25 -5 27 -11 4 -12 116 -16 179 -6 57 8 148 63 214 127 82
80 92 92 104 120 6 14 15 32 20 40 40 64 73 202 66 280 -4 54 -30 133 -52 156
-12 13 -19 24 -16 24 13 0 -45 48 -87 72 -39 22 -131 44 -141 34z"/>
<path d="M6716 5728 c-9 -51 -39 -210 -67 -353 -28 -143 -57 -296 -65 -340
-16 -81 -37 -190 -55 -280 -5 -27 -23 -120 -39 -205 -17 -85 -35 -179 -41
-209 -6 -30 -15 -77 -19 -105 -5 -28 -13 -69 -18 -91 -5 -22 -15 -74 -22 -115
-7 -41 -16 -89 -21 -106 -5 -17 -13 -59 -18 -95 -5 -35 -19 -106 -30 -158 -12
-52 -21 -108 -21 -126 0 -17 -4 -35 -9 -41 -5 -5 -12 -27 -15 -49 -20 -141
-29 -192 -37 -207 -5 -10 -9 -33 -9 -51 0 -19 -3 -37 -7 -41 -8 -7 -24 -98
-39 -213 -4 -29 -11 -53 -15 -53 -5 0 -9 -22 -9 -48 0 -27 -3 -52 -7 -56 -8
-8 -27 -114 -39 -218 -4 -32 -11 -55 -15 -52 -5 3 -9 -15 -9 -40 0 -25 -4 -47
-9 -51 -6 -3 -13 -26 -17 -50 -3 -25 -10 -45 -15 -45 -5 0 -9 -15 -9 -34 0
-19 -6 -41 -14 -49 -8 -8 -17 -35 -21 -60 -4 -25 -13 -48 -21 -51 -8 -3 -14
-17 -14 -31 0 -14 -4 -25 -10 -25 -5 0 -12 -16 -16 -35 -3 -19 -10 -33 -14
-30 -4 3 -10 -9 -14 -26 -3 -16 -13 -37 -21 -45 -8 -9 -15 -23 -15 -33 0 -9
-9 -23 -20 -31 -11 -8 -20 -22 -20 -32 0 -10 -4 -18 -9 -18 -5 0 -11 -13 -14
-30 -4 -18 -13 -30 -22 -30 -8 0 -15 -8 -15 -19 0 -10 -7 -24 -15 -31 -8 -7
-15 -19 -15 -27 0 -9 -6 -13 -14 -10 -9 4 -16 -4 -20 -24 -6 -31 -13 -41 -63
-95 -18 -19 -33 -38 -33 -41 0 -4 -9 -16 -20 -28 -10 -11 -40 -42 -65 -70 -25
-27 -52 -57 -60 -66 -8 -9 -15 -21 -15 -27 0 -6 -7 -9 -15 -6 -8 4 -17 -1 -21
-10 -3 -9 -10 -13 -15 -10 -5 3 -9 -2 -9 -10 0 -9 -9 -21 -20 -28 -11 -7 -20
-18 -20 -25 0 -7 -5 -13 -11 -13 -16 0 -79 -51 -79 -65 0 -6 -12 -17 -27 -24
-15 -7 -43 -25 -64 -42 -20 -16 -42 -29 -47 -29 -6 0 -24 -14 -41 -31 -17 -17
-35 -28 -40 -25 -5 3 -12 -1 -15 -10 -3 -8 -10 -12 -16 -9 -5 3 -10 1 -10 -5
0 -6 -4 -8 -10 -5 -5 3 -10 1 -10 -5 0 -6 -4 -9 -9 -6 -5 3 -11 -1 -15 -9 -3
-8 -10 -15 -16 -15 -6 0 -24 -10 -39 -21 -16 -12 -34 -18 -40 -15 -6 4 -11 2
-11 -4 0 -6 -4 -8 -10 -5 -5 3 -10 1 -10 -5 0 -6 -4 -8 -10 -5 -5 3 -10 1 -10
-5 0 -6 -4 -8 -10 -5 -5 3 -10 1 -10 -5 0 -6 -4 -8 -10 -5 -5 3 -10 1 -10 -4
0 -6 -9 -11 -20 -11 -11 0 -23 -6 -26 -14 -3 -8 -12 -12 -19 -10 -8 3 -30 -2
-50 -12 -21 -9 -43 -17 -51 -17 -7 0 -16 -7 -19 -15 -3 -8 -12 -11 -20 -8 -8
3 -15 2 -15 -3 0 -4 -6 -8 -12 -9 -54 -3 -100 -13 -133 -26 -22 -9 -45 -14
-52 -12 -7 3 -13 2 -13 -2 0 -4 -8 -9 -17 -10 -10 -1 -34 -4 -53 -6 -19 -2
-60 -7 -90 -11 -30 -4 -74 -8 -97 -9 -24 0 -43 -5 -43 -9 0 -5 -5 -5 -10 -2
-6 3 -61 8 -123 10 -61 2 -127 8 -145 14 -18 5 -39 8 -46 5 -6 -2 -354 81
-771 185 -418 104 -1120 278 -1560 386 -440 108 -806 198 -814 201 -10 3 -11
1 -5 -8 6 -7 16 -31 23 -53 16 -48 49 -124 62 -145 5 -8 12 -23 15 -33 4 -9
11 -17 16 -17 5 0 6 -5 3 -10 -4 -6 7 -28 24 -49 17 -21 31 -42 31 -46 0 -3 6
-12 13 -19 6 -7 28 -32 47 -56 85 -107 251 -250 289 -250 6 0 11 -3 11 -7 0
-9 49 -33 67 -33 7 0 13 -4 13 -9 0 -5 12 -12 28 -15 15 -4 41 -13 57 -21 40
-20 2715 -687 2731 -681 7 3 35 -1 63 -9 28 -7 51 -9 51 -5 0 5 13 5 30 0 30
-9 266 -5 330 5 51 8 113 17 133 18 9 1 17 5 17 9 0 4 6 5 13 2 8 -3 34 4 59
15 26 11 48 17 51 15 2 -3 28 4 57 15 29 11 57 18 62 15 4 -3 8 -1 8 4 0 5 6
9 14 9 8 0 30 8 51 17 20 10 42 15 50 12 7 -2 16 2 19 10 3 8 15 14 26 14 11
0 20 5 20 11 0 5 5 7 10 4 6 -3 10 -1 10 5 0 6 5 8 10 5 6 -3 10 -1 10 5 0 6
5 8 10 5 6 -3 10 -1 10 5 0 6 5 8 10 5 6 -3 10 -1 10 5 0 6 5 8 10 5 6 -3 10
-2 10 4 0 6 6 8 13 6 6 -3 24 6 38 19 15 14 30 22 33 19 3 -4 6 -1 6 6 0 7 5
9 10 6 6 -3 10 -1 10 5 0 6 5 8 10 5 6 -3 10 -1 10 5 0 6 4 9 9 5 6 -3 15 4
21 15 6 12 18 19 25 16 8 -3 15 0 17 6 2 6 20 20 40 32 75 44 127 81 128 91 0
6 15 20 33 32 54 38 117 98 117 112 0 8 2 12 5 9 5 -5 49 30 80 62 6 6 27 28
48 49 20 21 37 43 37 49 0 5 11 17 25 26 14 9 25 21 25 27 0 6 15 26 33 44 50
51 57 62 63 94 4 20 11 28 20 24 8 -3 14 1 14 10 0 8 7 20 15 27 8 7 15 21 15
31 0 11 7 19 15 19 9 0 18 12 22 30 3 17 9 30 14 30 5 0 9 7 9 15 0 9 9 25 20
37 11 12 20 30 20 40 0 10 7 21 15 24 8 3 18 22 21 42 4 20 13 43 21 50 7 7
13 20 13 28 0 8 5 14 10 14 6 0 10 11 10 25 0 14 6 28 14 31 8 3 17 27 21 55
4 27 11 49 15 49 5 0 12 20 16 45 3 25 10 45 14 45 4 0 11 20 14 45 4 24 11
47 17 50 5 4 9 26 9 51 0 25 4 43 9 40 4 -3 11 20 15 52 12 104 31 210 39 218
4 4 7 29 7 56 0 26 4 48 9 48 4 0 11 24 15 52 15 116 31 207 39 214 4 4 7 22
7 41 0 18 4 41 9 51 9 17 28 126 37 220 3 28 9 50 14 47 4 -2 10 27 14 65 3
38 11 81 16 95 6 14 10 42 10 61 0 19 4 34 9 34 4 0 11 35 15 77 4 43 11 82
15 88 5 5 11 28 14 50 14 105 31 200 37 205 4 3 11 40 15 82 3 43 11 80 16 84
5 3 9 20 9 39 0 19 7 60 15 92 8 31 15 74 15 95 0 21 4 38 9 38 5 0 12 34 16
75 4 41 11 75 15 75 4 0 11 36 15 80 4 44 11 80 15 80 4 0 11 36 14 80 4 44
11 80 16 80 4 0 11 36 15 80 4 44 11 80 15 80 5 0 11 34 15 75 4 41 11 75 15
75 4 0 11 35 15 78 4 42 10 82 14 87 7 12 8 325 1 325 -3 0 -5 17 -6 38 -1 79
-43 244 -80 315 -13 26 -22 47 -18 47 3 0 -4 16 -16 35 -12 19 -19 35 -16 35
4 0 -15 32 -40 70 -26 39 -48 70 -49 70 0 0 -9 -42 -19 -92z"/>
</g>
</svg>
