<?xml version="1.0" standalone="no"?>
<!DOCTYPE svg PUBLIC "-//W3C//DTD SVG 20010904//EN"
 "http://www.w3.org/TR/2001/REC-SVG-20010904/DTD/svg10.dtd">
<svg version="1.0" xmlns="http://www.w3.org/2000/svg"
 width="831.000000pt" height="865.000000pt" viewBox="0 0 831.000000 865.000000"
 preserveAspectRatio="xMidYMid meet">

<g transform="translate(0.000000,865.000000) scale(0.100000,-0.100000)"
fill="#000000" stroke="none">
<path d="M5860 8630 c-8 -5 -26 -10 -40 -10 -14 0 -38 -7 -54 -15 -15 -8 -34
-15 -41 -15 -7 0 -28 -13 -46 -30 -19 -16 -39 -30 -46 -30 -6 0 -14 -8 -17
-17 -4 -10 -19 -33 -35 -50 -16 -18 -33 -45 -38 -60 -6 -16 -16 -44 -24 -63
-10 -28 -14 -202 -19 -865 l-5 -830 -855 -5 c-794 -5 -858 -7 -900 -23 -25
-10 -54 -27 -65 -37 -11 -10 -29 -20 -41 -24 -42 -13 -99 -87 -142 -186 -33
-74 -34 -207 -3 -306 19 -61 30 -78 89 -136 37 -36 85 -73 107 -83 22 -9 52
-23 67 -31 22 -12 163 -14 870 -14 795 0 846 -1 861 -18 14 -15 16 -104 19
-844 2 -645 6 -830 16 -840 6 -6 12 -24 12 -39 0 -16 14 -45 35 -71 20 -23 49
-60 66 -81 31 -38 119 -87 156 -87 11 0 24 -5 30 -11 6 -6 43 -9 99 -6 155 8
211 30 294 118 66 69 100 126 113 194 6 30 13 384 16 865 4 448 7 816 9 818 1
1 366 2 811 2 l810 0 73 34 c79 37 158 96 171 128 4 11 18 34 32 50 14 16 25
42 25 58 0 15 7 33 15 40 11 9 15 34 15 100 0 66 -4 91 -15 100 -8 7 -15 23
-15 36 0 28 -24 74 -65 127 -36 45 -157 137 -182 137 -10 1 -29 7 -43 15 -21
12 -151 14 -827 15 -442 0 -804 1 -805 3 -2 1 -5 367 -9 812 -3 446 -9 828
-13 850 -10 51 -41 117 -66 140 -11 10 -20 24 -20 31 0 21 -64 74 -145 120
-52 30 -208 53 -235 34z"/>
<path d="M2935 7529 c-97 -51 -121 -101 -128 -266 -4 -80 -11 -124 -25 -156
-20 -45 -66 -87 -112 -103 -14 -4 -207 -10 -430 -14 -378 -5 -407 -6 -435 -24
-96 -62 -115 -102 -124 -265 -5 -77 -14 -140 -23 -162 -16 -38 -65 -80 -108
-95 -14 -4 -333 -11 -710 -14 -655 -5 -686 -6 -715 -24 -53 -35 -86 -70 -106
-115 -18 -42 -19 -73 -19 -820 0 -759 1 -777 21 -821 11 -25 30 -56 42 -68 31
-33 90 -62 129 -62 18 0 82 -9 141 -19 126 -22 167 -45 200 -111 21 -42 22
-61 27 -315 4 -227 8 -275 22 -300 25 -46 57 -75 102 -96 39 -18 94 -19 1321
-19 1006 0 1287 -3 1315 -13 80 -29 97 -48 113 -127 16 -82 19 -150 7 -164 -6
-8 -15 -36 -20 -63 -18 -106 -94 -243 -187 -339 -44 -45 -213 -134 -255 -134
-15 0 -39 -5 -55 -11 -72 -27 -188 -32 -898 -38 -716 -6 -741 -7 -774 -26 -19
-11 -48 -37 -65 -58 l-31 -39 -3 -177 -3 -178 33 -44 c54 -71 73 -76 318 -83
374 -10 436 -17 508 -56 75 -40 145 -113 181 -190 31 -66 41 -204 21 -277 -28
-100 -141 -224 -231 -254 -19 -7 -62 -25 -97 -40 -35 -16 -66 -29 -68 -29 -10
0 -623 -273 -724 -322 -58 -28 -154 -81 -215 -118 -60 -36 -138 -81 -173 -100
-88 -47 -126 -94 -147 -184 -14 -60 -15 -82 -6 -125 6 -29 11 -105 11 -169 1
-157 23 -211 115 -271 l40 -26 1072 -3 c901 -2 1078 0 1106 12 29 11 49 40
132 182 54 93 108 185 120 204 12 19 60 100 105 180 46 80 113 197 150 260
l66 115 422 3 422 2 39 -82 c21 -46 60 -128 86 -183 26 -55 58 -125 72 -155
34 -73 81 -173 138 -295 26 -55 58 -125 72 -155 14 -30 32 -63 41 -72 14 -17
89 -18 1311 -18 1283 0 1296 1 1341 21 60 27 88 54 116 114 23 48 24 59 24
280 0 222 -1 232 -24 282 -30 64 -81 103 -167 127 -149 41 -206 89 -279 235
-75 150 -81 183 -89 461 -6 178 -11 241 -22 260 -35 60 -52 79 -98 104 -43 23
-60 26 -147 26 -157 0 -227 29 -266 108 -23 46 -23 55 -28 447 -5 395 -6 401
-29 448 -26 53 -54 76 -133 111 -50 22 -69 24 -298 29 -177 3 -262 9 -305 21
-33 8 -79 15 -102 16 -23 0 -45 5 -48 10 -3 5 -21 10 -38 10 -18 0 -41 7 -51
15 -11 8 -27 15 -35 15 -9 0 -68 26 -131 57 -105 53 -125 68 -233 173 -66 63
-126 129 -134 145 -8 17 -25 41 -38 55 -12 14 -29 37 -36 51 -62 117 -78 151
-93 204 -10 33 -22 68 -27 77 -5 10 -9 35 -9 57 0 22 -6 52 -12 68 -10 21 -14
159 -18 528 l-5 500 -515 5 c-381 4 -522 8 -543 18 -16 6 -52 12 -80 12 -30 0
-60 7 -71 15 -11 8 -28 15 -37 15 -9 0 -39 11 -66 24 -26 13 -68 32 -93 42
-25 10 -64 31 -88 45 -51 32 -262 218 -262 231 0 5 -23 34 -52 64 -28 30 -57
65 -64 77 -28 48 -74 144 -74 154 0 6 -7 24 -15 39 -8 16 -15 39 -15 51 0 12
-4 25 -10 28 -5 3 -10 24 -10 46 0 22 -5 50 -12 62 -38 69 -39 404 -2 464 8
12 14 40 14 62 0 22 5 43 10 46 6 3 10 15 10 27 0 19 5 30 44 105 9 17 16 39
16 48 0 9 10 31 23 48 30 44 45 68 56 92 5 12 65 77 134 146 88 88 151 141
210 177 46 29 90 52 96 52 6 0 11 5 11 10 0 6 8 10 18 10 9 0 26 7 36 15 11 8
30 15 42 15 13 0 26 5 29 10 3 6 14 10 23 10 9 0 30 7 46 15 15 8 48 15 71 15
24 0 56 6 72 12 20 9 164 14 538 18 l510 5 3 74 c2 53 -1 77 -10 82 -7 5 -387
9 -843 9 -825 0 -831 0 -870 -21z"/>
</g>
</svg>