<?xml version="1.0" standalone="no"?>
<!DOCTYPE svg PUBLIC "-//W3C//DTD SVG 20010904//EN"
 "http://www.w3.org/TR/2001/REC-SVG-20010904/DTD/svg10.dtd">
<svg version="1.0" xmlns="http://www.w3.org/2000/svg"
 width="1024.000000pt" height="1024.000000pt" viewBox="0 0 1024.000000 1024.000000"
 preserveAspectRatio="xMidYMid meet">

<g transform="translate(0.000000,1024.000000) scale(0.100000,-0.100000)"
fill="#000000" stroke="none">
<path d="M4715 10225 c-960 -82 -1822 -402 -2600 -964 -444 -320 -836 -718
-1176 -1191 -316 -441 -599 -1031 -742 -1550 -285 -1029 -257 -2062 81 -3062
105 -308 259 -646 421 -920 l81 -138 -380 -973 c-208 -535 -384 -995 -390
-1023 -14 -59 -5 -143 20 -201 23 -52 91 -127 145 -158 62 -37 166 -51 240
-33 33 9 493 185 1023 391 l962 377 138 -81 c164 -97 492 -259 655 -324 1074
-427 2208 -488 3327 -178 519 143 1109 426 1550 742 605 434 1080 948 1452
1571 588 986 825 2145 673 3290 -145 1094 -645 2110 -1429 2908 -333 339 -663
594 -1096 849 -549 323 -1220 552 -1870 638 -333 44 -772 56 -1085 30z m795
-1086 c142 -11 397 -51 515 -81 216 -55 489 -145 645 -214 47 -20 110 -46 140
-58 60 -23 232 -114 348 -182 40 -24 75 -44 78 -44 12 0 221 -145 325 -226
433 -337 714 -646 988 -1086 218 -349 404 -794 506 -1208 62 -253 105 -628
105 -925 0 -190 -29 -519 -60 -680 -5 -27 -11 -63 -14 -80 -3 -16 -7 -39 -10
-50 -3 -11 -26 -101 -51 -201 -56 -227 -117 -403 -212 -614 -97 -216 -153
-319 -285 -527 -173 -273 -253 -378 -465 -609 -173 -189 -445 -416 -701 -586
-251 -167 -421 -261 -672 -371 -241 -106 -582 -201 -943 -262 -643 -109 -1371
-40 -2022 192 -55 20 -199 84 -320 143 -199 96 -281 142 -553 308 -156 95
-292 129 -467 118 -123 -7 -223 -39 -622 -199 l-111 -44 24 62 c12 35 39 103
59 151 19 48 35 92 35 97 0 4 11 33 25 63 91 198 105 253 105 406 0 97 -4 130
-25 197 -31 98 -69 176 -139 284 -86 133 -244 430 -320 602 -113 253 -221 615
-280 935 -92 502 -56 1238 85 1725 35 122 121 380 146 437 231 536 498 949
833 1292 314 321 562 516 915 719 167 95 223 124 375 187 69 29 145 61 169 72
54 24 296 108 331 115 14 2 56 13 95 24 225 63 449 101 690 119 83 6 170 12
195 14 67 5 398 -4 540 -15z"/>
</g>
</svg>
