<?xml version="1.0" standalone="no"?>
<!DOCTYPE svg PUBLIC "-//W3C//DTD SVG 20010904//EN"
 "http://www.w3.org/TR/2001/REC-SVG-20010904/DTD/svg10.dtd">
<svg version="1.0" xmlns="http://www.w3.org/2000/svg"
 width="925.000000pt" height="810.000000pt" viewBox="0 0 925.000000 810.000000"
 preserveAspectRatio="xMidYMid meet">

<g transform="translate(0.000000,810.000000) scale(0.100000,-0.100000)"
fill="#000000" stroke="none">
<path d="M7775 8039 c-236 -45 -1097 -202 -1255 -229 -116 -20 -196 -41 -223
-59 -15 -9 -1035 -1024 -2266 -2254 -1796 -1793 -2245 -2237 -2265 -2237 -20
0 -81 55 -271 240 -134 132 -257 245 -272 251 -58 22 -78 7 -316 -230 -126
-124 -235 -239 -244 -255 -21 -40 -11 -80 34 -135 21 -25 210 -220 420 -433
266 -269 383 -394 383 -409 0 -15 -202 -224 -683 -708 -375 -377 -696 -706
-713 -731 -60 -89 -79 -147 -79 -245 0 -123 23 -167 157 -306 248 -254 308
-289 463 -268 72 10 142 39 210 87 28 19 354 338 725 707 371 370 685 678 698
684 21 11 46 -11 435 -397 227 -224 425 -418 441 -430 31 -24 75 -28 109 -11
31 16 455 439 473 471 22 41 17 82 -13 120 -15 18 -128 135 -250 261 -170 173
-223 233 -223 252 0 20 47 71 207 228 114 111 297 294 408 406 110 113 1026
1032 2035 2043 1526 1528 1839 1847 1858 1889 27 58 18 10 157 799 58 332 119
678 135 769 16 91 27 168 24 173 -8 12 -16 11 -299 -43z m-456 -725 c60 -50
59 -68 -10 -484 -47 -288 -55 -324 -82 -370 -11 -19 -963 -979 -2116 -2133
-1591 -1592 -2108 -2104 -2146 -2124 -32 -17 -66 -26 -94 -26 -44 0 -46 1
-180 139 -166 169 -204 222 -205 284 0 25 8 62 18 83 12 23 864 884 2295 2316
1761 1763 2288 2286 2331 2310 73 41 144 43 189 5z"/>
<path d="M1173 8063 c-3 -8 51 -331 121 -716 176 -974 175 -967 197 -1017 15
-35 167 -192 690 -716 l671 -671 314 310 c173 170 314 313 314 317 0 4 -302
308 -671 676 -684 681 -845 848 -874 906 -9 18 -19 54 -22 80 -6 46 -4 49 39
93 40 40 50 45 90 45 25 0 69 -4 99 -10 69 -12 227 -37 349 -56 140 -21 283
-54 301 -70 8 -8 20 -14 25 -14 5 0 269 -260 586 -577 l578 -578 165 165 165
165 -677 677 c-623 623 -681 678 -732 698 -31 12 -173 42 -316 66 -431 74
-824 141 -1123 193 -240 41 -284 46 -289 34z"/>
<path d="M6359 4014 l-164 -164 416 -418 c229 -229 426 -435 438 -457 13 -21
25 -62 28 -90 l5 -50 -151 -148 c-84 -81 -162 -152 -174 -158 -12 -5 -33 -16
-47 -24 -34 -20 -87 -18 -136 4 -29 13 -157 135 -430 411 -214 216 -402 401
-418 413 l-30 21 -308 -314 c-169 -173 -308 -318 -308 -322 0 -4 204 -212 454
-462 250 -249 457 -463 461 -475 9 -28 -37 -81 -294 -343 l-204 -207 6 -47 c5
-46 11 -52 238 -280 271 -271 277 -274 364 -216 22 15 221 206 442 425 222
218 410 397 419 397 9 0 328 -310 708 -690 381 -379 697 -690 703 -690 6 0 16
-6 22 -14 6 -7 41 -28 78 -46 94 -46 193 -56 283 -27 63 19 72 27 251 206 180
180 186 188 202 247 35 127 13 234 -77 364 -17 25 -338 354 -713 731 -376 377
-683 694 -683 703 0 9 191 210 425 446 234 236 425 432 426 437 0 4 2 17 4 28
3 11 0 34 -5 50 -12 38 -453 480 -493 495 -16 5 -40 7 -55 4 -17 -4 -98 -77
-217 -194 -191 -189 -327 -310 -349 -310 -14 0 -240 222 -516 506 -107 110
-249 251 -316 312 l-120 111 -165 -165z"/>
</g>
</svg>
