<?xml version="1.0" standalone="no"?>
<!DOCTYPE svg PUBLIC "-//W3C//DTD SVG 20010904//EN"
 "http://www.w3.org/TR/2001/REC-SVG-20010904/DTD/svg10.dtd">
<svg version="1.0" xmlns="http://www.w3.org/2000/svg"
 width="1000.000000pt" height="800.000000pt" viewBox="0 0 1000.000000 800.000000"
 preserveAspectRatio="xMidYMid meet">

<g transform="translate(0.000000,800.000000) scale(0.100000,-0.100000)"
fill="#000000" stroke="none">
<path d="M8880 7880 c-63 -5 -308 -20 -545 -34 -236 -14 -457 -28 -490 -31
-33 -3 -179 -12 -325 -20 -290 -17 -521 -30 -760 -45 -85 -6 -270 -17 -410
-25 -140 -9 -356 -22 -480 -31 -124 -8 -335 -21 -470 -29 -135 -8 -319 -19
-410 -25 -91 -6 -345 -21 -565 -35 -330 -20 -898 -55 -1300 -80 -44 -2 -154
-9 -245 -15 -91 -5 -237 -14 -325 -20 -88 -6 -236 -15 -330 -20 -93 -6 -240
-15 -325 -20 -248 -16 -621 -39 -805 -50 -353 -21 -487 -44 -610 -109 -89 -46
-174 -132 -217 -218 -43 -89 -51 -216 -20 -320 38 -125 151 -278 313 -425 46
-42 105 -96 130 -119 25 -24 87 -82 138 -129 51 -47 111 -103 135 -125 23 -22
84 -78 135 -125 51 -47 112 -103 136 -125 23 -22 81 -76 129 -120 48 -44 107
-98 130 -120 142 -133 189 -176 246 -229 36 -32 97 -88 136 -125 38 -36 99
-93 135 -125 76 -70 158 -146 260 -240 41 -38 101 -94 135 -125 60 -56 99 -92
319 -296 174 -162 232 -220 248 -252 26 -50 46 -126 61 -228 8 -55 27 -170 41
-255 14 -85 29 -184 34 -220 16 -110 59 -397 86 -565 14 -88 32 -203 40 -255
7 -52 23 -158 35 -235 27 -174 34 -221 55 -360 9 -60 36 -238 60 -395 25 -157
54 -346 66 -420 81 -535 101 -626 164 -749 19 -38 59 -95 89 -128 144 -155
340 -192 531 -98 78 37 202 138 256 206 19 24 41 51 49 60 18 19 83 103 257
329 171 222 205 267 304 393 46 60 93 121 104 136 11 15 32 43 47 62 26 33
184 238 283 368 152 199 490 637 495 641 3 3 18 23 35 45 16 22 32 42 35 45 4
3 26 32 50 65 24 33 47 62 50 65 4 3 56 70 116 149 60 79 132 174 159 210 66
86 454 589 471 610 48 59 109 137 160 205 32 43 70 94 84 111 14 18 67 88 119
156 52 68 100 130 107 139 7 8 106 137 220 285 114 149 260 337 323 420 64 82
160 206 213 276 54 71 104 136 112 146 8 10 153 198 322 418 169 220 310 402
313 405 3 3 49 61 101 130 52 69 100 132 107 140 79 98 434 566 482 635 132
192 176 356 136 508 -23 87 -51 136 -124 208 -70 69 -133 105 -236 134 -72 20
-329 28 -505 15z m-1810 -1074 c0 -2 -129 -73 -287 -157 -159 -83 -344 -182
-413 -219 -69 -37 -246 -132 -395 -210 -148 -79 -369 -195 -490 -260 -201
-107 -447 -238 -665 -352 -47 -25 -225 -119 -395 -210 -597 -318 -795 -408
-905 -408 -65 0 -176 65 -280 164 -25 23 -124 114 -220 200 -181 164 -242 220
-371 340 -41 39 -104 98 -140 131 -35 33 -123 114 -194 181 -72 66 -161 149
-200 185 -38 35 -115 111 -170 169 l-100 104 43 13 c48 14 195 28 444 43 93 5
241 14 330 20 90 5 278 17 418 25 140 8 320 19 400 25 80 5 296 18 480 30 368
22 592 36 805 50 77 5 194 12 260 15 135 6 274 15 815 50 206 13 461 29 565
35 105 7 278 17 385 25 224 14 280 17 280 11z m458 -940 c-76 -102 -274 -359
-353 -461 -47 -60 -117 -150 -154 -200 -38 -49 -90 -117 -116 -150 -26 -33
-78 -100 -115 -150 -179 -234 -305 -396 -358 -460 -32 -38 -139 -177 -238
-308 -98 -131 -199 -264 -224 -296 -117 -152 -196 -254 -267 -347 -43 -55
-133 -172 -201 -260 -67 -87 -139 -181 -160 -207 -20 -27 -57 -75 -82 -106
-25 -32 -70 -90 -100 -130 -30 -40 -84 -109 -120 -153 -36 -44 -86 -109 -111
-144 -25 -35 -64 -83 -85 -107 -21 -24 -86 -105 -144 -181 -219 -288 -262
-342 -308 -389 l-46 -47 -14 26 c-16 30 -49 218 -107 609 -8 61 -27 173 -40
250 -13 77 -31 194 -39 260 -34 258 -48 356 -71 500 -14 83 -32 209 -40 280
-19 158 -10 230 39 303 33 49 133 130 213 173 26 14 122 66 213 116 171 94
559 300 785 418 72 38 135 71 140 75 6 4 66 36 135 70 69 35 154 80 190 100
84 49 834 447 1295 688 132 69 301 159 375 199 74 40 137 73 138 73 2 0 -11
-20 -30 -44z"/>
</g>
</svg>
