<?xml version="1.0" standalone="no"?>
<!DOCTYPE svg PUBLIC "-//W3C//DTD SVG 20010904//EN"
 "http://www.w3.org/TR/2001/REC-SVG-20010904/DTD/svg10.dtd">
<svg version="1.0" xmlns="http://www.w3.org/2000/svg"
 width="1000.000000pt" height="1000.000000pt" viewBox="0 0 1000.000000 1000.000000"
 preserveAspectRatio="xMidYMid meet">

<g transform="translate(0.000000,1000.000000) scale(0.100000,-0.100000)"
fill="#000000" stroke="none">
<path d="M3680 7889 c-124 -10 -168 -19 -305 -59 -16 -5 -41 -12 -55 -15 -14
-4 -34 -10 -45 -15 -11 -5 -54 -21 -95 -36 -41 -14 -79 -31 -84 -35 -6 -5 -16
-9 -23 -9 -16 0 -227 -97 -298 -137 -309 -176 -624 -387 -840 -562 -27 -23
-70 -56 -94 -73 -24 -18 -54 -42 -65 -53 -12 -11 -39 -34 -61 -50 -22 -16 -67
-55 -100 -87 -33 -31 -78 -70 -100 -86 -41 -31 -562 -556 -696 -704 -42 -45
-96 -108 -120 -138 -24 -30 -55 -66 -69 -80 -14 -14 -37 -41 -50 -60 -14 -19
-45 -59 -70 -87 -49 -58 -110 -132 -168 -205 -20 -25 -51 -64 -68 -85 -73 -90
-135 -198 -159 -277 l-25 -82 24 -78 c33 -107 96 -203 306 -474 19 -25 46 -60
60 -77 65 -84 147 -182 170 -205 14 -14 39 -43 55 -65 38 -52 558 -572 610
-610 22 -16 57 -45 78 -65 21 -19 46 -39 55 -44 9 -6 34 -26 55 -45 21 -20 46
-40 55 -45 10 -5 33 -23 53 -40 20 -17 62 -49 94 -71 31 -22 63 -45 69 -51 6
-6 16 -13 21 -15 6 -2 69 -43 140 -90 72 -48 148 -97 170 -109 22 -13 60 -34
85 -48 25 -14 56 -33 70 -42 32 -22 351 -181 407 -203 23 -9 64 -26 90 -38 26
-11 58 -25 71 -30 12 -5 32 -13 45 -19 84 -36 429 -155 497 -171 19 -4 53 -13
75 -19 59 -17 154 -40 235 -58 25 -5 79 -17 120 -27 240 -53 533 -89 866 -103
112 -5 210 -14 222 -21 27 -14 187 -14 214 0 12 7 110 16 222 21 333 14 626
50 866 103 41 10 95 22 120 27 81 18 176 41 235 58 22 6 56 15 75 19 68 16
413 135 498 171 12 6 32 14 45 19 12 5 44 19 70 30 26 12 67 29 90 38 56 22
375 181 407 203 14 9 45 28 70 42 25 14 63 35 85 48 22 12 99 61 170 109 72
47 134 88 140 90 5 2 15 9 21 15 6 6 38 29 69 51 32 22 74 54 94 71 20 17 43
35 53 40 9 5 34 25 55 45 21 19 46 39 55 45 9 5 34 25 55 44 21 20 56 49 78
65 52 38 572 558 610 610 16 22 41 51 55 65 25 24 103 119 180 218 19 25 46
60 60 77 202 260 263 355 296 461 l24 78 -25 82 c-24 79 -86 187 -159 277 -17
21 -48 60 -68 85 -58 73 -119 147 -168 205 -25 28 -56 68 -70 87 -13 19 -36
46 -50 60 -14 14 -45 50 -69 80 -24 30 -78 93 -120 138 -134 148 -655 673
-696 704 -22 16 -67 55 -100 86 -33 32 -78 71 -100 87 -22 16 -49 39 -61 50
-11 11 -41 35 -65 53 -24 17 -66 50 -94 73 -216 175 -531 386 -840 562 -71 40
-282 137 -298 137 -7 0 -17 4 -23 9 -5 4 -43 21 -84 35 -41 15 -84 31 -95 36
-11 5 -31 11 -45 15 -24 6 -47 13 -127 36 -164 47 -514 59 -653 22 -30 -8 -68
-18 -85 -23 -98 -26 -260 -104 -360 -173 -76 -53 -191 -161 -274 -257 -76 -87
-124 -120 -176 -120 -52 0 -100 33 -176 120 -83 96 -198 204 -274 257 -100 69
-262 147 -360 173 -16 5 -55 15 -85 23 -68 18 -293 27 -420 16z m1824 -2309
c16 -5 77 -10 135 -10 59 0 111 -4 116 -9 6 -5 48 -12 95 -15 47 -3 117 -9
155 -14 149 -21 217 -32 225 -37 4 -3 37 -10 72 -15 184 -31 262 -47 458 -96
58 -14 116 -28 130 -31 14 -2 34 -8 45 -13 11 -4 40 -13 65 -19 25 -7 83 -24
130 -38 47 -14 99 -30 115 -34 80 -22 174 -51 205 -63 65 -26 195 -73 235 -86
22 -6 63 -23 92 -36 28 -13 58 -24 66 -24 17 0 30 -27 21 -42 -6 -10 -147 -78
-162 -78 -4 0 -29 -11 -56 -25 -27 -14 -53 -25 -58 -25 -5 0 -28 -9 -50 -20
-23 -11 -45 -20 -50 -20 -4 0 -29 -10 -56 -23 -26 -12 -81 -33 -122 -46 -41
-13 -100 -33 -130 -44 -30 -11 -70 -23 -87 -28 -39 -11 -97 -27 -138 -39 -124
-36 -261 -70 -358 -88 -23 -5 -48 -11 -54 -15 -7 -4 -29 -8 -50 -9 -21 0 -46
-5 -55 -10 -10 -5 -36 -10 -58 -13 -22 -2 -48 -6 -57 -9 -49 -15 -273 -46
-383 -52 -47 -3 -89 -10 -94 -15 -6 -5 -54 -9 -107 -9 -54 0 -109 -4 -123 -10
-73 -27 -1169 -27 -1242 0 -14 6 -69 10 -123 10 -53 0 -101 4 -107 9 -5 5 -47
12 -94 15 -110 6 -334 37 -383 52 -9 3 -35 7 -57 9 -22 3 -48 8 -58 13 -9 5
-34 10 -55 10 -21 1 -43 5 -50 9 -6 4 -31 10 -54 15 -97 18 -221 49 -360 89
-85 24 -105 30 -135 38 -18 5 -58 17 -88 28 -30 11 -89 31 -130 44 -41 13 -96
34 -122 46 -27 13 -52 23 -56 23 -5 0 -27 9 -50 20 -22 11 -45 20 -50 20 -5 0
-31 11 -58 25 -27 14 -52 25 -56 25 -15 0 -156 68 -162 78 -9 15 4 42 21 42 8
0 38 11 66 24 29 13 70 30 92 36 40 13 170 60 235 86 31 12 125 41 205 63 17
4 68 20 115 34 47 14 105 31 130 38 25 6 54 15 65 19 11 5 31 11 45 13 14 3
72 17 130 31 196 49 274 65 458 96 35 5 68 12 72 15 8 5 76 16 225 37 39 5
108 11 155 14 47 3 89 10 95 15 5 5 56 9 115 9 58 1 126 6 151 13 58 15 958
13 1003 -3z"/>
</g>
</svg>
